<mxfile host="app.diagrams.net" modified="2022-01-28T19:10:23.317Z" agent="5.0 (Macintosh)" etag="DVtVGGArn1ZWTGwUPlGe" version="16.5.2" type="github">
  <diagram id="0TVenFac1eKW_WVRhH9U" name="PÃ¡gina-1">
    <mxGraphModel dx="1501" dy="2066" grid="1" gridSize="10" guides="1" tooltips="1" connect="1" arrows="1" fold="1" page="1" pageScale="1" pageWidth="850" pageHeight="1100" math="0" shadow="0">
      <root>
        <mxCell id="0" />
        <mxCell id="1" parent="0" />
        <mxCell id="xLpc2Q17ecYwa52cMYqb-99" value="users" style="shape=table;startSize=30;container=1;collapsible=1;childLayout=tableLayout;fixedRows=1;rowLines=0;fontStyle=1;align=center;resizeLast=1;fontSize=12;verticalAlign=middle;spacing=0;spacingTop=0;" parent="1" vertex="1">
          <mxGeometry x="20" y="510" width="180" height="190" as="geometry" />
        </mxCell>
        <mxCell id="xLpc2Q17ecYwa52cMYqb-100" value="" style="shape=tableRow;horizontal=0;startSize=0;swimlaneHead=0;swimlaneBody=0;fillColor=none;collapsible=0;dropTarget=0;points=[[0,0.5],[1,0.5]];portConstraint=eastwest;top=0;left=0;right=0;bottom=0;fontSize=12;verticalAlign=middle;spacing=0;spacingTop=0;" parent="xLpc2Q17ecYwa52cMYqb-99" vertex="1">
          <mxGeometry y="30" width="180" height="30" as="geometry" />
        </mxCell>
        <mxCell id="xLpc2Q17ecYwa52cMYqb-101" value="PK" style="shape=partialRectangle;connectable=0;fillColor=none;top=0;left=0;bottom=0;right=0;fontStyle=1;overflow=hidden;fontSize=12;verticalAlign=middle;spacing=0;spacingTop=0;" parent="xLpc2Q17ecYwa52cMYqb-100" vertex="1">
          <mxGeometry width="40" height="30" as="geometry">
            <mxRectangle width="40" height="30" as="alternateBounds" />
          </mxGeometry>
        </mxCell>
        <mxCell id="xLpc2Q17ecYwa52cMYqb-102" value="id" style="shape=partialRectangle;connectable=0;fillColor=none;top=0;left=0;bottom=0;right=0;align=left;spacingLeft=6;fontStyle=5;overflow=hidden;fontSize=12;verticalAlign=middle;spacing=0;spacingTop=0;" parent="xLpc2Q17ecYwa52cMYqb-100" vertex="1">
          <mxGeometry x="40" width="140" height="30" as="geometry">
            <mxRectangle width="140" height="30" as="alternateBounds" />
          </mxGeometry>
        </mxCell>
        <mxCell id="xLpc2Q17ecYwa52cMYqb-103" value="" style="shape=tableRow;horizontal=0;startSize=0;swimlaneHead=0;swimlaneBody=0;fillColor=none;collapsible=0;dropTarget=0;points=[[0,0.5],[1,0.5]];portConstraint=eastwest;top=0;left=0;right=0;bottom=1;fontSize=12;verticalAlign=middle;spacing=0;spacingTop=0;" parent="xLpc2Q17ecYwa52cMYqb-99" vertex="1">
          <mxGeometry y="60" width="180" height="30" as="geometry" />
        </mxCell>
        <mxCell id="xLpc2Q17ecYwa52cMYqb-104" value="FK" style="shape=partialRectangle;connectable=0;fillColor=none;top=0;left=0;bottom=0;right=0;fontStyle=1;overflow=hidden;fontSize=12;verticalAlign=middle;spacing=0;spacingTop=0;" parent="xLpc2Q17ecYwa52cMYqb-103" vertex="1">
          <mxGeometry width="40" height="30" as="geometry">
            <mxRectangle width="40" height="30" as="alternateBounds" />
          </mxGeometry>
        </mxCell>
        <mxCell id="xLpc2Q17ecYwa52cMYqb-105" value="type_user_id" style="shape=partialRectangle;connectable=0;fillColor=none;top=0;left=0;bottom=0;right=0;align=left;spacingLeft=6;fontStyle=5;overflow=hidden;fontSize=12;verticalAlign=middle;spacing=0;spacingTop=0;" parent="xLpc2Q17ecYwa52cMYqb-103" vertex="1">
          <mxGeometry x="40" width="140" height="30" as="geometry">
            <mxRectangle width="140" height="30" as="alternateBounds" />
          </mxGeometry>
        </mxCell>
        <mxCell id="xLpc2Q17ecYwa52cMYqb-106" value="" style="shape=tableRow;horizontal=0;startSize=0;swimlaneHead=0;swimlaneBody=0;fillColor=none;collapsible=0;dropTarget=0;points=[[0,0.5],[1,0.5]];portConstraint=eastwest;top=0;left=0;right=0;bottom=0;fontSize=12;verticalAlign=middle;spacing=0;spacingTop=0;" parent="xLpc2Q17ecYwa52cMYqb-99" vertex="1">
          <mxGeometry y="90" width="180" height="30" as="geometry" />
        </mxCell>
        <mxCell id="xLpc2Q17ecYwa52cMYqb-107" value="" style="shape=partialRectangle;connectable=0;fillColor=none;top=0;left=0;bottom=0;right=0;editable=1;overflow=hidden;fontSize=12;verticalAlign=middle;spacing=0;spacingTop=0;" parent="xLpc2Q17ecYwa52cMYqb-106" vertex="1">
          <mxGeometry width="40" height="30" as="geometry">
            <mxRectangle width="40" height="30" as="alternateBounds" />
          </mxGeometry>
        </mxCell>
        <mxCell id="xLpc2Q17ecYwa52cMYqb-108" value="name" style="shape=partialRectangle;connectable=0;fillColor=none;top=0;left=0;bottom=0;right=0;align=left;spacingLeft=6;overflow=hidden;fontSize=12;verticalAlign=middle;spacing=0;spacingTop=0;" parent="xLpc2Q17ecYwa52cMYqb-106" vertex="1">
          <mxGeometry x="40" width="140" height="30" as="geometry">
            <mxRectangle width="140" height="30" as="alternateBounds" />
          </mxGeometry>
        </mxCell>
        <mxCell id="xLpc2Q17ecYwa52cMYqb-109" value="" style="shape=tableRow;horizontal=0;startSize=0;swimlaneHead=0;swimlaneBody=0;fillColor=none;collapsible=0;dropTarget=0;points=[[0,0.5],[1,0.5]];portConstraint=eastwest;top=0;left=0;right=0;bottom=0;fontSize=12;verticalAlign=middle;spacing=0;spacingTop=0;" parent="xLpc2Q17ecYwa52cMYqb-99" vertex="1">
          <mxGeometry y="120" width="180" height="30" as="geometry" />
        </mxCell>
        <mxCell id="xLpc2Q17ecYwa52cMYqb-110" value="" style="shape=partialRectangle;connectable=0;fillColor=none;top=0;left=0;bottom=0;right=0;editable=1;overflow=hidden;fontSize=12;verticalAlign=middle;spacing=0;spacingTop=0;" parent="xLpc2Q17ecYwa52cMYqb-109" vertex="1">
          <mxGeometry width="40" height="30" as="geometry">
            <mxRectangle width="40" height="30" as="alternateBounds" />
          </mxGeometry>
        </mxCell>
        <mxCell id="xLpc2Q17ecYwa52cMYqb-111" value="email" style="shape=partialRectangle;connectable=0;fillColor=none;top=0;left=0;bottom=0;right=0;align=left;spacingLeft=6;overflow=hidden;fontSize=12;verticalAlign=middle;spacing=0;spacingTop=0;" parent="xLpc2Q17ecYwa52cMYqb-109" vertex="1">
          <mxGeometry x="40" width="140" height="30" as="geometry">
            <mxRectangle width="140" height="30" as="alternateBounds" />
          </mxGeometry>
        </mxCell>
        <mxCell id="xLpc2Q17ecYwa52cMYqb-151" style="shape=tableRow;horizontal=0;startSize=0;swimlaneHead=0;swimlaneBody=0;fillColor=none;collapsible=0;dropTarget=0;points=[[0,0.5],[1,0.5]];portConstraint=eastwest;top=0;left=0;right=0;bottom=0;fontSize=12;verticalAlign=middle;spacing=0;spacingTop=0;" parent="xLpc2Q17ecYwa52cMYqb-99" vertex="1">
          <mxGeometry y="150" width="180" height="30" as="geometry" />
        </mxCell>
        <mxCell id="xLpc2Q17ecYwa52cMYqb-152" style="shape=partialRectangle;connectable=0;fillColor=none;top=0;left=0;bottom=0;right=0;editable=1;overflow=hidden;fontSize=12;verticalAlign=middle;spacing=0;spacingTop=0;" parent="xLpc2Q17ecYwa52cMYqb-151" vertex="1">
          <mxGeometry width="40" height="30" as="geometry">
            <mxRectangle width="40" height="30" as="alternateBounds" />
          </mxGeometry>
        </mxCell>
        <mxCell id="xLpc2Q17ecYwa52cMYqb-153" value="password" style="shape=partialRectangle;connectable=0;fillColor=none;top=0;left=0;bottom=0;right=0;align=left;spacingLeft=6;overflow=hidden;fontSize=12;verticalAlign=middle;spacing=0;spacingTop=0;" parent="xLpc2Q17ecYwa52cMYqb-151" vertex="1">
          <mxGeometry x="40" width="140" height="30" as="geometry">
            <mxRectangle width="140" height="30" as="alternateBounds" />
          </mxGeometry>
        </mxCell>
        <mxCell id="xLpc2Q17ecYwa52cMYqb-125" value="Table" style="shape=table;startSize=30;container=1;collapsible=1;childLayout=tableLayout;fixedRows=1;rowLines=0;fontStyle=1;align=center;resizeLast=1;fontSize=12;verticalAlign=middle;spacing=0;spacingTop=0;" parent="1" vertex="1">
          <mxGeometry x="1080" y="420" width="180" height="190" as="geometry" />
        </mxCell>
        <mxCell id="xLpc2Q17ecYwa52cMYqb-126" value="" style="shape=tableRow;horizontal=0;startSize=0;swimlaneHead=0;swimlaneBody=0;fillColor=none;collapsible=0;dropTarget=0;points=[[0,0.5],[1,0.5]];portConstraint=eastwest;top=0;left=0;right=0;bottom=0;fontSize=12;verticalAlign=middle;spacing=0;spacingTop=0;" parent="xLpc2Q17ecYwa52cMYqb-125" vertex="1">
          <mxGeometry y="30" width="180" height="30" as="geometry" />
        </mxCell>
        <mxCell id="xLpc2Q17ecYwa52cMYqb-127" value="PK" style="shape=partialRectangle;connectable=0;fillColor=none;top=0;left=0;bottom=0;right=0;fontStyle=1;overflow=hidden;fontSize=12;verticalAlign=middle;spacing=0;spacingTop=0;" parent="xLpc2Q17ecYwa52cMYqb-126" vertex="1">
          <mxGeometry width="40" height="30" as="geometry">
            <mxRectangle width="40" height="30" as="alternateBounds" />
          </mxGeometry>
        </mxCell>
        <mxCell id="xLpc2Q17ecYwa52cMYqb-128" value="id" style="shape=partialRectangle;connectable=0;fillColor=none;top=0;left=0;bottom=0;right=0;align=left;spacingLeft=6;fontStyle=5;overflow=hidden;fontSize=12;verticalAlign=middle;spacing=0;spacingTop=0;" parent="xLpc2Q17ecYwa52cMYqb-126" vertex="1">
          <mxGeometry x="40" width="140" height="30" as="geometry">
            <mxRectangle width="140" height="30" as="alternateBounds" />
          </mxGeometry>
        </mxCell>
        <mxCell id="MfyLsWGhFaBwBQXPZ9hn-67" style="shape=tableRow;horizontal=0;startSize=0;swimlaneHead=0;swimlaneBody=0;fillColor=none;collapsible=0;dropTarget=0;points=[[0,0.5],[1,0.5]];portConstraint=eastwest;top=0;left=0;right=0;bottom=0;fontSize=12;verticalAlign=middle;spacing=0;spacingTop=0;" vertex="1" parent="xLpc2Q17ecYwa52cMYqb-125">
          <mxGeometry y="60" width="180" height="30" as="geometry" />
        </mxCell>
        <mxCell id="MfyLsWGhFaBwBQXPZ9hn-68" value="FK" style="shape=partialRectangle;connectable=0;fillColor=none;top=0;left=0;bottom=0;right=0;fontStyle=1;overflow=hidden;fontSize=12;verticalAlign=middle;spacing=0;spacingTop=0;" vertex="1" parent="MfyLsWGhFaBwBQXPZ9hn-67">
          <mxGeometry width="40" height="30" as="geometry">
            <mxRectangle width="40" height="30" as="alternateBounds" />
          </mxGeometry>
        </mxCell>
        <mxCell id="MfyLsWGhFaBwBQXPZ9hn-69" style="shape=partialRectangle;connectable=0;fillColor=none;top=0;left=0;bottom=0;right=0;align=left;spacingLeft=6;fontStyle=5;overflow=hidden;fontSize=12;verticalAlign=middle;spacing=0;spacingTop=0;" vertex="1" parent="MfyLsWGhFaBwBQXPZ9hn-67">
          <mxGeometry x="40" width="140" height="30" as="geometry">
            <mxRectangle width="140" height="30" as="alternateBounds" />
          </mxGeometry>
        </mxCell>
        <mxCell id="xLpc2Q17ecYwa52cMYqb-129" value="" style="shape=tableRow;horizontal=0;startSize=0;swimlaneHead=0;swimlaneBody=0;fillColor=none;collapsible=0;dropTarget=0;points=[[0,0.5],[1,0.5]];portConstraint=eastwest;top=0;left=0;right=0;bottom=1;fontSize=12;verticalAlign=middle;spacing=0;spacingTop=0;" parent="xLpc2Q17ecYwa52cMYqb-125" vertex="1">
          <mxGeometry y="90" width="180" height="30" as="geometry" />
        </mxCell>
        <mxCell id="xLpc2Q17ecYwa52cMYqb-130" value="FK" style="shape=partialRectangle;connectable=0;fillColor=none;top=0;left=0;bottom=0;right=0;fontStyle=1;overflow=hidden;fontSize=12;verticalAlign=middle;spacing=0;spacingTop=0;" parent="xLpc2Q17ecYwa52cMYqb-129" vertex="1">
          <mxGeometry width="40" height="30" as="geometry">
            <mxRectangle width="40" height="30" as="alternateBounds" />
          </mxGeometry>
        </mxCell>
        <mxCell id="xLpc2Q17ecYwa52cMYqb-131" value="Row 2" style="shape=partialRectangle;connectable=0;fillColor=none;top=0;left=0;bottom=0;right=0;align=left;spacingLeft=6;fontStyle=5;overflow=hidden;fontSize=12;verticalAlign=middle;spacing=0;spacingTop=0;" parent="xLpc2Q17ecYwa52cMYqb-129" vertex="1">
          <mxGeometry x="40" width="140" height="30" as="geometry">
            <mxRectangle width="140" height="30" as="alternateBounds" />
          </mxGeometry>
        </mxCell>
        <mxCell id="xLpc2Q17ecYwa52cMYqb-132" value="" style="shape=tableRow;horizontal=0;startSize=0;swimlaneHead=0;swimlaneBody=0;fillColor=none;collapsible=0;dropTarget=0;points=[[0,0.5],[1,0.5]];portConstraint=eastwest;top=0;left=0;right=0;bottom=0;fontSize=12;verticalAlign=middle;spacing=0;spacingTop=0;" parent="xLpc2Q17ecYwa52cMYqb-125" vertex="1">
          <mxGeometry y="120" width="180" height="30" as="geometry" />
        </mxCell>
        <mxCell id="xLpc2Q17ecYwa52cMYqb-133" value="" style="shape=partialRectangle;connectable=0;fillColor=none;top=0;left=0;bottom=0;right=0;editable=1;overflow=hidden;fontSize=12;verticalAlign=middle;spacing=0;spacingTop=0;" parent="xLpc2Q17ecYwa52cMYqb-132" vertex="1">
          <mxGeometry width="40" height="30" as="geometry">
            <mxRectangle width="40" height="30" as="alternateBounds" />
          </mxGeometry>
        </mxCell>
        <mxCell id="xLpc2Q17ecYwa52cMYqb-134" value="Row 3" style="shape=partialRectangle;connectable=0;fillColor=none;top=0;left=0;bottom=0;right=0;align=left;spacingLeft=6;overflow=hidden;fontSize=12;verticalAlign=middle;spacing=0;spacingTop=0;" parent="xLpc2Q17ecYwa52cMYqb-132" vertex="1">
          <mxGeometry x="40" width="140" height="30" as="geometry">
            <mxRectangle width="140" height="30" as="alternateBounds" />
          </mxGeometry>
        </mxCell>
        <mxCell id="xLpc2Q17ecYwa52cMYqb-135" value="" style="shape=tableRow;horizontal=0;startSize=0;swimlaneHead=0;swimlaneBody=0;fillColor=none;collapsible=0;dropTarget=0;points=[[0,0.5],[1,0.5]];portConstraint=eastwest;top=0;left=0;right=0;bottom=0;fontSize=12;verticalAlign=middle;spacing=0;spacingTop=0;" parent="xLpc2Q17ecYwa52cMYqb-125" vertex="1">
          <mxGeometry y="150" width="180" height="30" as="geometry" />
        </mxCell>
        <mxCell id="xLpc2Q17ecYwa52cMYqb-136" value="" style="shape=partialRectangle;connectable=0;fillColor=none;top=0;left=0;bottom=0;right=0;editable=1;overflow=hidden;fontSize=12;verticalAlign=middle;spacing=0;spacingTop=0;" parent="xLpc2Q17ecYwa52cMYqb-135" vertex="1">
          <mxGeometry width="40" height="30" as="geometry">
            <mxRectangle width="40" height="30" as="alternateBounds" />
          </mxGeometry>
        </mxCell>
        <mxCell id="xLpc2Q17ecYwa52cMYqb-137" value="Row 4" style="shape=partialRectangle;connectable=0;fillColor=none;top=0;left=0;bottom=0;right=0;align=left;spacingLeft=6;overflow=hidden;fontSize=12;verticalAlign=middle;spacing=0;spacingTop=0;" parent="xLpc2Q17ecYwa52cMYqb-135" vertex="1">
          <mxGeometry x="40" width="140" height="30" as="geometry">
            <mxRectangle width="140" height="30" as="alternateBounds" />
          </mxGeometry>
        </mxCell>
        <mxCell id="xLpc2Q17ecYwa52cMYqb-138" value="types_avocado" style="shape=table;startSize=30;container=1;collapsible=1;childLayout=tableLayout;fixedRows=1;rowLines=0;fontStyle=1;align=center;resizeLast=1;fontSize=12;verticalAlign=middle;spacing=0;spacingTop=0;" parent="1" vertex="1">
          <mxGeometry x="20" y="300" width="180" height="100" as="geometry" />
        </mxCell>
        <mxCell id="xLpc2Q17ecYwa52cMYqb-142" value="" style="shape=tableRow;horizontal=0;startSize=0;swimlaneHead=0;swimlaneBody=0;fillColor=none;collapsible=0;dropTarget=0;points=[[0,0.5],[1,0.5]];portConstraint=eastwest;top=0;left=0;right=0;bottom=1;fontSize=12;verticalAlign=middle;spacing=0;spacingTop=0;" parent="xLpc2Q17ecYwa52cMYqb-138" vertex="1">
          <mxGeometry y="30" width="180" height="30" as="geometry" />
        </mxCell>
        <mxCell id="xLpc2Q17ecYwa52cMYqb-143" value="PK" style="shape=partialRectangle;connectable=0;fillColor=none;top=0;left=0;bottom=0;right=0;fontStyle=1;overflow=hidden;fontSize=12;verticalAlign=middle;spacing=0;spacingTop=0;" parent="xLpc2Q17ecYwa52cMYqb-142" vertex="1">
          <mxGeometry width="40" height="30" as="geometry">
            <mxRectangle width="40" height="30" as="alternateBounds" />
          </mxGeometry>
        </mxCell>
        <mxCell id="xLpc2Q17ecYwa52cMYqb-144" value="id" style="shape=partialRectangle;connectable=0;fillColor=none;top=0;left=0;bottom=0;right=0;align=left;spacingLeft=6;fontStyle=5;overflow=hidden;fontSize=12;verticalAlign=middle;spacing=0;spacingTop=0;" parent="xLpc2Q17ecYwa52cMYqb-142" vertex="1">
          <mxGeometry x="40" width="140" height="30" as="geometry">
            <mxRectangle width="140" height="30" as="alternateBounds" />
          </mxGeometry>
        </mxCell>
        <mxCell id="xLpc2Q17ecYwa52cMYqb-145" value="" style="shape=tableRow;horizontal=0;startSize=0;swimlaneHead=0;swimlaneBody=0;fillColor=none;collapsible=0;dropTarget=0;points=[[0,0.5],[1,0.5]];portConstraint=eastwest;top=0;left=0;right=0;bottom=0;fontSize=12;verticalAlign=middle;spacing=0;spacingTop=0;" parent="xLpc2Q17ecYwa52cMYqb-138" vertex="1">
          <mxGeometry y="60" width="180" height="30" as="geometry" />
        </mxCell>
        <mxCell id="xLpc2Q17ecYwa52cMYqb-146" value="" style="shape=partialRectangle;connectable=0;fillColor=none;top=0;left=0;bottom=0;right=0;editable=1;overflow=hidden;fontSize=12;verticalAlign=middle;spacing=0;spacingTop=0;" parent="xLpc2Q17ecYwa52cMYqb-145" vertex="1">
          <mxGeometry width="40" height="30" as="geometry">
            <mxRectangle width="40" height="30" as="alternateBounds" />
          </mxGeometry>
        </mxCell>
        <mxCell id="xLpc2Q17ecYwa52cMYqb-147" value="type_avocado" style="shape=partialRectangle;connectable=0;fillColor=none;top=0;left=0;bottom=0;right=0;align=left;spacingLeft=6;overflow=hidden;fontSize=12;verticalAlign=middle;spacing=0;spacingTop=0;" parent="xLpc2Q17ecYwa52cMYqb-145" vertex="1">
          <mxGeometry x="40" width="140" height="30" as="geometry">
            <mxRectangle width="140" height="30" as="alternateBounds" />
          </mxGeometry>
        </mxCell>
        <mxCell id="xLpc2Q17ecYwa52cMYqb-154" value="Table" style="shape=table;startSize=30;container=1;collapsible=1;childLayout=tableLayout;fixedRows=1;rowLines=0;fontStyle=1;align=center;resizeLast=1;fontSize=12;verticalAlign=middle;spacing=0;spacingTop=0;" parent="1" vertex="1">
          <mxGeometry x="1060" y="260" width="180" height="130" as="geometry" />
        </mxCell>
        <mxCell id="xLpc2Q17ecYwa52cMYqb-155" value="" style="shape=tableRow;horizontal=0;startSize=0;swimlaneHead=0;swimlaneBody=0;fillColor=none;collapsible=0;dropTarget=0;points=[[0,0.5],[1,0.5]];portConstraint=eastwest;top=0;left=0;right=0;bottom=1;fontSize=12;verticalAlign=middle;spacing=0;spacingTop=0;" parent="xLpc2Q17ecYwa52cMYqb-154" vertex="1">
          <mxGeometry y="30" width="180" height="30" as="geometry" />
        </mxCell>
        <mxCell id="xLpc2Q17ecYwa52cMYqb-156" value="PK" style="shape=partialRectangle;connectable=0;fillColor=none;top=0;left=0;bottom=0;right=0;fontStyle=1;overflow=hidden;fontSize=12;verticalAlign=middle;spacing=0;spacingTop=0;" parent="xLpc2Q17ecYwa52cMYqb-155" vertex="1">
          <mxGeometry width="40" height="30" as="geometry">
            <mxRectangle width="40" height="30" as="alternateBounds" />
          </mxGeometry>
        </mxCell>
        <mxCell id="xLpc2Q17ecYwa52cMYqb-157" value="id" style="shape=partialRectangle;connectable=0;fillColor=none;top=0;left=0;bottom=0;right=0;align=left;spacingLeft=6;fontStyle=5;overflow=hidden;fontSize=12;verticalAlign=middle;spacing=0;spacingTop=0;" parent="xLpc2Q17ecYwa52cMYqb-155" vertex="1">
          <mxGeometry x="40" width="140" height="30" as="geometry">
            <mxRectangle width="140" height="30" as="alternateBounds" />
          </mxGeometry>
        </mxCell>
        <mxCell id="xLpc2Q17ecYwa52cMYqb-158" value="" style="shape=tableRow;horizontal=0;startSize=0;swimlaneHead=0;swimlaneBody=0;fillColor=none;collapsible=0;dropTarget=0;points=[[0,0.5],[1,0.5]];portConstraint=eastwest;top=0;left=0;right=0;bottom=0;fontSize=12;verticalAlign=middle;spacing=0;spacingTop=0;" parent="xLpc2Q17ecYwa52cMYqb-154" vertex="1">
          <mxGeometry y="60" width="180" height="30" as="geometry" />
        </mxCell>
        <mxCell id="xLpc2Q17ecYwa52cMYqb-159" value="" style="shape=partialRectangle;connectable=0;fillColor=none;top=0;left=0;bottom=0;right=0;editable=1;overflow=hidden;fontSize=12;verticalAlign=middle;spacing=0;spacingTop=0;" parent="xLpc2Q17ecYwa52cMYqb-158" vertex="1">
          <mxGeometry width="40" height="30" as="geometry">
            <mxRectangle width="40" height="30" as="alternateBounds" />
          </mxGeometry>
        </mxCell>
        <mxCell id="xLpc2Q17ecYwa52cMYqb-160" value="Row 3" style="shape=partialRectangle;connectable=0;fillColor=none;top=0;left=0;bottom=0;right=0;align=left;spacingLeft=6;overflow=hidden;fontSize=12;verticalAlign=middle;spacing=0;spacingTop=0;" parent="xLpc2Q17ecYwa52cMYqb-158" vertex="1">
          <mxGeometry x="40" width="140" height="30" as="geometry">
            <mxRectangle width="140" height="30" as="alternateBounds" />
          </mxGeometry>
        </mxCell>
        <mxCell id="xLpc2Q17ecYwa52cMYqb-161" value="" style="shape=tableRow;horizontal=0;startSize=0;swimlaneHead=0;swimlaneBody=0;fillColor=none;collapsible=0;dropTarget=0;points=[[0,0.5],[1,0.5]];portConstraint=eastwest;top=0;left=0;right=0;bottom=0;fontSize=12;verticalAlign=middle;spacing=0;spacingTop=0;" parent="xLpc2Q17ecYwa52cMYqb-154" vertex="1">
          <mxGeometry y="90" width="180" height="30" as="geometry" />
        </mxCell>
        <mxCell id="xLpc2Q17ecYwa52cMYqb-162" value="" style="shape=partialRectangle;connectable=0;fillColor=none;top=0;left=0;bottom=0;right=0;editable=1;overflow=hidden;fontSize=12;verticalAlign=middle;spacing=0;spacingTop=0;" parent="xLpc2Q17ecYwa52cMYqb-161" vertex="1">
          <mxGeometry width="40" height="30" as="geometry">
            <mxRectangle width="40" height="30" as="alternateBounds" />
          </mxGeometry>
        </mxCell>
        <mxCell id="xLpc2Q17ecYwa52cMYqb-163" value="Row 4" style="shape=partialRectangle;connectable=0;fillColor=none;top=0;left=0;bottom=0;right=0;align=left;spacingLeft=6;overflow=hidden;fontSize=12;verticalAlign=middle;spacing=0;spacingTop=0;" parent="xLpc2Q17ecYwa52cMYqb-161" vertex="1">
          <mxGeometry x="40" width="140" height="30" as="geometry">
            <mxRectangle width="140" height="30" as="alternateBounds" />
          </mxGeometry>
        </mxCell>
        <mxCell id="xLpc2Q17ecYwa52cMYqb-165" value="types_climate" style="shape=table;startSize=30;container=1;collapsible=1;childLayout=tableLayout;fixedRows=1;rowLines=0;fontStyle=1;align=center;resizeLast=1;fontSize=12;verticalAlign=middle;spacing=0;spacingTop=0;" parent="1" vertex="1">
          <mxGeometry x="550" y="530" width="180" height="100" as="geometry" />
        </mxCell>
        <mxCell id="xLpc2Q17ecYwa52cMYqb-166" value="" style="shape=tableRow;horizontal=0;startSize=0;swimlaneHead=0;swimlaneBody=0;fillColor=none;collapsible=0;dropTarget=0;points=[[0,0.5],[1,0.5]];portConstraint=eastwest;top=0;left=0;right=0;bottom=1;fontSize=12;verticalAlign=middle;spacing=0;spacingTop=0;" parent="xLpc2Q17ecYwa52cMYqb-165" vertex="1">
          <mxGeometry y="30" width="180" height="30" as="geometry" />
        </mxCell>
        <mxCell id="xLpc2Q17ecYwa52cMYqb-167" value="PK" style="shape=partialRectangle;connectable=0;fillColor=none;top=0;left=0;bottom=0;right=0;fontStyle=1;overflow=hidden;fontSize=12;verticalAlign=middle;spacing=0;spacingTop=0;" parent="xLpc2Q17ecYwa52cMYqb-166" vertex="1">
          <mxGeometry width="40" height="30" as="geometry">
            <mxRectangle width="40" height="30" as="alternateBounds" />
          </mxGeometry>
        </mxCell>
        <mxCell id="xLpc2Q17ecYwa52cMYqb-168" value="id" style="shape=partialRectangle;connectable=0;fillColor=none;top=0;left=0;bottom=0;right=0;align=left;spacingLeft=6;fontStyle=5;overflow=hidden;fontSize=12;verticalAlign=middle;spacing=0;spacingTop=0;" parent="xLpc2Q17ecYwa52cMYqb-166" vertex="1">
          <mxGeometry x="40" width="140" height="30" as="geometry">
            <mxRectangle width="140" height="30" as="alternateBounds" />
          </mxGeometry>
        </mxCell>
        <mxCell id="xLpc2Q17ecYwa52cMYqb-169" value="" style="shape=tableRow;horizontal=0;startSize=0;swimlaneHead=0;swimlaneBody=0;fillColor=none;collapsible=0;dropTarget=0;points=[[0,0.5],[1,0.5]];portConstraint=eastwest;top=0;left=0;right=0;bottom=0;fontSize=12;verticalAlign=middle;spacing=0;spacingTop=0;" parent="xLpc2Q17ecYwa52cMYqb-165" vertex="1">
          <mxGeometry y="60" width="180" height="30" as="geometry" />
        </mxCell>
        <mxCell id="xLpc2Q17ecYwa52cMYqb-170" value="" style="shape=partialRectangle;connectable=0;fillColor=none;top=0;left=0;bottom=0;right=0;editable=1;overflow=hidden;fontSize=12;verticalAlign=middle;spacing=0;spacingTop=0;" parent="xLpc2Q17ecYwa52cMYqb-169" vertex="1">
          <mxGeometry width="40" height="30" as="geometry">
            <mxRectangle width="40" height="30" as="alternateBounds" />
          </mxGeometry>
        </mxCell>
        <mxCell id="xLpc2Q17ecYwa52cMYqb-171" value="type_climate" style="shape=partialRectangle;connectable=0;fillColor=none;top=0;left=0;bottom=0;right=0;align=left;spacingLeft=6;overflow=hidden;fontSize=12;verticalAlign=middle;spacing=0;spacingTop=0;" parent="xLpc2Q17ecYwa52cMYqb-169" vertex="1">
          <mxGeometry x="40" width="140" height="30" as="geometry">
            <mxRectangle width="140" height="30" as="alternateBounds" />
          </mxGeometry>
        </mxCell>
        <mxCell id="xLpc2Q17ecYwa52cMYqb-175" value="types_soil" style="shape=table;startSize=30;container=1;collapsible=1;childLayout=tableLayout;fixedRows=1;rowLines=0;fontStyle=1;align=center;resizeLast=1;fontSize=12;verticalAlign=middle;spacing=0;spacingTop=0;" parent="1" vertex="1">
          <mxGeometry x="540" y="410" width="180" height="100" as="geometry" />
        </mxCell>
        <mxCell id="xLpc2Q17ecYwa52cMYqb-176" value="" style="shape=tableRow;horizontal=0;startSize=0;swimlaneHead=0;swimlaneBody=0;fillColor=none;collapsible=0;dropTarget=0;points=[[0,0.5],[1,0.5]];portConstraint=eastwest;top=0;left=0;right=0;bottom=1;fontSize=12;verticalAlign=middle;spacing=0;spacingTop=0;" parent="xLpc2Q17ecYwa52cMYqb-175" vertex="1">
          <mxGeometry y="30" width="180" height="30" as="geometry" />
        </mxCell>
        <mxCell id="xLpc2Q17ecYwa52cMYqb-177" value="PK" style="shape=partialRectangle;connectable=0;fillColor=none;top=0;left=0;bottom=0;right=0;fontStyle=1;overflow=hidden;fontSize=12;verticalAlign=middle;spacing=0;spacingTop=0;" parent="xLpc2Q17ecYwa52cMYqb-176" vertex="1">
          <mxGeometry width="40" height="30" as="geometry">
            <mxRectangle width="40" height="30" as="alternateBounds" />
          </mxGeometry>
        </mxCell>
        <mxCell id="xLpc2Q17ecYwa52cMYqb-178" value="id" style="shape=partialRectangle;connectable=0;fillColor=none;top=0;left=0;bottom=0;right=0;align=left;spacingLeft=6;fontStyle=5;overflow=hidden;fontSize=12;verticalAlign=middle;spacing=0;spacingTop=0;" parent="xLpc2Q17ecYwa52cMYqb-176" vertex="1">
          <mxGeometry x="40" width="140" height="30" as="geometry">
            <mxRectangle width="140" height="30" as="alternateBounds" />
          </mxGeometry>
        </mxCell>
        <mxCell id="xLpc2Q17ecYwa52cMYqb-179" value="" style="shape=tableRow;horizontal=0;startSize=0;swimlaneHead=0;swimlaneBody=0;fillColor=none;collapsible=0;dropTarget=0;points=[[0,0.5],[1,0.5]];portConstraint=eastwest;top=0;left=0;right=0;bottom=0;fontSize=12;verticalAlign=middle;spacing=0;spacingTop=0;" parent="xLpc2Q17ecYwa52cMYqb-175" vertex="1">
          <mxGeometry y="60" width="180" height="30" as="geometry" />
        </mxCell>
        <mxCell id="xLpc2Q17ecYwa52cMYqb-180" value="" style="shape=partialRectangle;connectable=0;fillColor=none;top=0;left=0;bottom=0;right=0;editable=1;overflow=hidden;fontSize=12;verticalAlign=middle;spacing=0;spacingTop=0;" parent="xLpc2Q17ecYwa52cMYqb-179" vertex="1">
          <mxGeometry width="40" height="30" as="geometry">
            <mxRectangle width="40" height="30" as="alternateBounds" />
          </mxGeometry>
        </mxCell>
        <mxCell id="xLpc2Q17ecYwa52cMYqb-181" value="type_soil" style="shape=partialRectangle;connectable=0;fillColor=none;top=0;left=0;bottom=0;right=0;align=left;spacingLeft=6;overflow=hidden;fontSize=12;verticalAlign=middle;spacing=0;spacingTop=0;" parent="xLpc2Q17ecYwa52cMYqb-179" vertex="1">
          <mxGeometry x="40" width="140" height="30" as="geometry">
            <mxRectangle width="140" height="30" as="alternateBounds" />
          </mxGeometry>
        </mxCell>
        <mxCell id="xLpc2Q17ecYwa52cMYqb-185" value="types_job" style="shape=table;startSize=30;container=1;collapsible=1;childLayout=tableLayout;fixedRows=1;rowLines=0;fontStyle=1;align=center;resizeLast=1;fontSize=12;verticalAlign=middle;spacing=0;spacingTop=0;" parent="1" vertex="1">
          <mxGeometry x="270" y="1140" width="180" height="100" as="geometry" />
        </mxCell>
        <mxCell id="xLpc2Q17ecYwa52cMYqb-186" value="" style="shape=tableRow;horizontal=0;startSize=0;swimlaneHead=0;swimlaneBody=0;fillColor=none;collapsible=0;dropTarget=0;points=[[0,0.5],[1,0.5]];portConstraint=eastwest;top=0;left=0;right=0;bottom=1;fontSize=12;verticalAlign=middle;spacing=0;spacingTop=0;" parent="xLpc2Q17ecYwa52cMYqb-185" vertex="1">
          <mxGeometry y="30" width="180" height="30" as="geometry" />
        </mxCell>
        <mxCell id="xLpc2Q17ecYwa52cMYqb-187" value="PK" style="shape=partialRectangle;connectable=0;fillColor=none;top=0;left=0;bottom=0;right=0;fontStyle=1;overflow=hidden;fontSize=12;verticalAlign=middle;spacing=0;spacingTop=0;" parent="xLpc2Q17ecYwa52cMYqb-186" vertex="1">
          <mxGeometry width="40" height="30" as="geometry">
            <mxRectangle width="40" height="30" as="alternateBounds" />
          </mxGeometry>
        </mxCell>
        <mxCell id="xLpc2Q17ecYwa52cMYqb-188" value="id" style="shape=partialRectangle;connectable=0;fillColor=none;top=0;left=0;bottom=0;right=0;align=left;spacingLeft=6;fontStyle=5;overflow=hidden;fontSize=12;verticalAlign=middle;spacing=0;spacingTop=0;" parent="xLpc2Q17ecYwa52cMYqb-186" vertex="1">
          <mxGeometry x="40" width="140" height="30" as="geometry">
            <mxRectangle width="140" height="30" as="alternateBounds" />
          </mxGeometry>
        </mxCell>
        <mxCell id="xLpc2Q17ecYwa52cMYqb-189" value="" style="shape=tableRow;horizontal=0;startSize=0;swimlaneHead=0;swimlaneBody=0;fillColor=none;collapsible=0;dropTarget=0;points=[[0,0.5],[1,0.5]];portConstraint=eastwest;top=0;left=0;right=0;bottom=0;fontSize=12;verticalAlign=middle;spacing=0;spacingTop=0;" parent="xLpc2Q17ecYwa52cMYqb-185" vertex="1">
          <mxGeometry y="60" width="180" height="30" as="geometry" />
        </mxCell>
        <mxCell id="xLpc2Q17ecYwa52cMYqb-190" value="" style="shape=partialRectangle;connectable=0;fillColor=none;top=0;left=0;bottom=0;right=0;editable=1;overflow=hidden;fontSize=12;verticalAlign=middle;spacing=0;spacingTop=0;" parent="xLpc2Q17ecYwa52cMYqb-189" vertex="1">
          <mxGeometry width="40" height="30" as="geometry">
            <mxRectangle width="40" height="30" as="alternateBounds" />
          </mxGeometry>
        </mxCell>
        <mxCell id="xLpc2Q17ecYwa52cMYqb-191" value="type_job" style="shape=partialRectangle;connectable=0;fillColor=none;top=0;left=0;bottom=0;right=0;align=left;spacingLeft=6;overflow=hidden;fontSize=12;verticalAlign=middle;spacing=0;spacingTop=0;" parent="xLpc2Q17ecYwa52cMYqb-189" vertex="1">
          <mxGeometry x="40" width="140" height="30" as="geometry">
            <mxRectangle width="140" height="30" as="alternateBounds" />
          </mxGeometry>
        </mxCell>
        <mxCell id="xLpc2Q17ecYwa52cMYqb-196" value="orchards" style="shape=table;startSize=30;container=1;collapsible=1;childLayout=tableLayout;fixedRows=1;rowLines=0;fontStyle=1;align=center;resizeLast=1;fontSize=12;verticalAlign=middle;spacing=0;spacingTop=0;perimeterSpacing=4;" parent="1" vertex="1">
          <mxGeometry x="260" y="260" width="180" height="550" as="geometry">
            <mxRectangle x="300" y="220" width="80" height="30" as="alternateBounds" />
          </mxGeometry>
        </mxCell>
        <mxCell id="xLpc2Q17ecYwa52cMYqb-197" value="" style="shape=tableRow;horizontal=0;startSize=0;swimlaneHead=0;swimlaneBody=0;fillColor=none;collapsible=0;dropTarget=0;points=[[0,0.5],[1,0.5]];portConstraint=eastwest;top=0;left=0;right=0;bottom=0;fontSize=12;verticalAlign=middle;spacing=0;spacingTop=0;" parent="xLpc2Q17ecYwa52cMYqb-196" vertex="1">
          <mxGeometry y="30" width="180" height="30" as="geometry" />
        </mxCell>
        <mxCell id="xLpc2Q17ecYwa52cMYqb-198" value="PK" style="shape=partialRectangle;connectable=0;fillColor=none;top=0;left=0;bottom=0;right=0;fontStyle=1;overflow=hidden;fontSize=12;verticalAlign=middle;spacing=0;spacingTop=0;" parent="xLpc2Q17ecYwa52cMYqb-197" vertex="1">
          <mxGeometry width="20" height="30" as="geometry">
            <mxRectangle width="20" height="30" as="alternateBounds" />
          </mxGeometry>
        </mxCell>
        <mxCell id="xLpc2Q17ecYwa52cMYqb-199" value="id" style="shape=partialRectangle;connectable=0;fillColor=none;top=0;left=0;bottom=0;right=0;align=left;spacingLeft=6;fontStyle=5;overflow=hidden;fontSize=12;verticalAlign=middle;spacing=0;spacingTop=0;spacingBottom=0;" parent="xLpc2Q17ecYwa52cMYqb-197" vertex="1">
          <mxGeometry x="20" width="160" height="30" as="geometry">
            <mxRectangle width="160" height="30" as="alternateBounds" />
          </mxGeometry>
        </mxCell>
        <mxCell id="xLpc2Q17ecYwa52cMYqb-242" style="shape=tableRow;horizontal=0;startSize=0;swimlaneHead=0;swimlaneBody=0;fillColor=none;collapsible=0;dropTarget=0;points=[[0,0.5],[1,0.5]];portConstraint=eastwest;top=0;left=0;right=0;bottom=0;fontSize=12;verticalAlign=middle;spacing=0;spacingTop=0;" parent="xLpc2Q17ecYwa52cMYqb-196" vertex="1">
          <mxGeometry y="60" width="180" height="30" as="geometry" />
        </mxCell>
        <mxCell id="xLpc2Q17ecYwa52cMYqb-243" value="FK" style="shape=partialRectangle;connectable=0;fillColor=none;top=0;left=0;bottom=0;right=0;fontStyle=1;overflow=hidden;fontSize=12;verticalAlign=middle;spacing=0;spacingTop=0;" parent="xLpc2Q17ecYwa52cMYqb-242" vertex="1">
          <mxGeometry width="20" height="30" as="geometry">
            <mxRectangle width="20" height="30" as="alternateBounds" />
          </mxGeometry>
        </mxCell>
        <mxCell id="xLpc2Q17ecYwa52cMYqb-244" value="type_avocado_id" style="shape=partialRectangle;connectable=0;fillColor=none;top=0;left=0;bottom=0;right=0;align=left;spacingLeft=6;fontStyle=5;overflow=hidden;fontSize=12;verticalAlign=middle;spacing=0;spacingTop=0;" parent="xLpc2Q17ecYwa52cMYqb-242" vertex="1">
          <mxGeometry x="20" width="160" height="30" as="geometry">
            <mxRectangle width="160" height="30" as="alternateBounds" />
          </mxGeometry>
        </mxCell>
        <mxCell id="xLpc2Q17ecYwa52cMYqb-239" style="shape=tableRow;horizontal=0;startSize=0;swimlaneHead=0;swimlaneBody=0;fillColor=none;collapsible=0;dropTarget=0;points=[[0,0.5],[1,0.5]];portConstraint=eastwest;top=0;left=0;right=0;bottom=0;fontSize=12;verticalAlign=middle;spacing=0;spacingTop=0;" parent="xLpc2Q17ecYwa52cMYqb-196" vertex="1">
          <mxGeometry y="90" width="180" height="30" as="geometry" />
        </mxCell>
        <mxCell id="xLpc2Q17ecYwa52cMYqb-240" value="FK" style="shape=partialRectangle;connectable=0;fillColor=none;top=0;left=0;bottom=0;right=0;fontStyle=1;overflow=hidden;fontSize=12;verticalAlign=middle;spacing=0;spacingTop=0;" parent="xLpc2Q17ecYwa52cMYqb-239" vertex="1">
          <mxGeometry width="20" height="30" as="geometry">
            <mxRectangle width="20" height="30" as="alternateBounds" />
          </mxGeometry>
        </mxCell>
        <mxCell id="xLpc2Q17ecYwa52cMYqb-241" value="type_topography_id" style="shape=partialRectangle;connectable=0;fillColor=none;top=0;left=0;bottom=0;right=0;align=left;spacingLeft=6;fontStyle=5;overflow=hidden;fontSize=12;verticalAlign=middle;spacing=0;spacingTop=0;" parent="xLpc2Q17ecYwa52cMYqb-239" vertex="1">
          <mxGeometry x="20" width="160" height="30" as="geometry">
            <mxRectangle width="160" height="30" as="alternateBounds" />
          </mxGeometry>
        </mxCell>
        <mxCell id="xLpc2Q17ecYwa52cMYqb-251" style="shape=tableRow;horizontal=0;startSize=0;swimlaneHead=0;swimlaneBody=0;fillColor=none;collapsible=0;dropTarget=0;points=[[0,0.5],[1,0.5]];portConstraint=eastwest;top=0;left=0;right=0;bottom=0;fontSize=12;verticalAlign=middle;spacing=0;spacingTop=0;" parent="xLpc2Q17ecYwa52cMYqb-196" vertex="1">
          <mxGeometry y="120" width="180" height="30" as="geometry" />
        </mxCell>
        <mxCell id="xLpc2Q17ecYwa52cMYqb-252" value="FK" style="shape=partialRectangle;connectable=0;fillColor=none;top=0;left=0;bottom=0;right=0;fontStyle=1;overflow=hidden;fontSize=12;verticalAlign=middle;spacing=0;spacingTop=0;" parent="xLpc2Q17ecYwa52cMYqb-251" vertex="1">
          <mxGeometry width="20" height="30" as="geometry">
            <mxRectangle width="20" height="30" as="alternateBounds" />
          </mxGeometry>
        </mxCell>
        <mxCell id="xLpc2Q17ecYwa52cMYqb-253" value="type_solid_id" style="shape=partialRectangle;connectable=0;fillColor=none;top=0;left=0;bottom=0;right=0;align=left;spacingLeft=6;fontStyle=5;overflow=hidden;fontSize=12;verticalAlign=middle;spacing=0;spacingTop=0;" parent="xLpc2Q17ecYwa52cMYqb-251" vertex="1">
          <mxGeometry x="20" width="160" height="30" as="geometry">
            <mxRectangle width="160" height="30" as="alternateBounds" />
          </mxGeometry>
        </mxCell>
        <mxCell id="xLpc2Q17ecYwa52cMYqb-248" style="shape=tableRow;horizontal=0;startSize=0;swimlaneHead=0;swimlaneBody=0;fillColor=none;collapsible=0;dropTarget=0;points=[[0,0.5],[1,0.5]];portConstraint=eastwest;top=0;left=0;right=0;bottom=0;fontSize=12;verticalAlign=middle;spacing=0;spacingTop=0;" parent="xLpc2Q17ecYwa52cMYqb-196" vertex="1">
          <mxGeometry y="150" width="180" height="30" as="geometry" />
        </mxCell>
        <mxCell id="xLpc2Q17ecYwa52cMYqb-249" value="FK" style="shape=partialRectangle;connectable=0;fillColor=none;top=0;left=0;bottom=0;right=0;fontStyle=1;overflow=hidden;fontSize=12;verticalAlign=middle;spacing=0;spacingTop=0;" parent="xLpc2Q17ecYwa52cMYqb-248" vertex="1">
          <mxGeometry width="20" height="30" as="geometry">
            <mxRectangle width="20" height="30" as="alternateBounds" />
          </mxGeometry>
        </mxCell>
        <mxCell id="xLpc2Q17ecYwa52cMYqb-250" value="type_climate_id" style="shape=partialRectangle;connectable=0;fillColor=none;top=0;left=0;bottom=0;right=0;align=left;spacingLeft=6;fontStyle=5;overflow=hidden;fontSize=12;verticalAlign=middle;spacing=0;spacingTop=0;" parent="xLpc2Q17ecYwa52cMYqb-248" vertex="1">
          <mxGeometry x="20" width="160" height="30" as="geometry">
            <mxRectangle width="160" height="30" as="alternateBounds" />
          </mxGeometry>
        </mxCell>
        <mxCell id="xLpc2Q17ecYwa52cMYqb-200" value="" style="shape=tableRow;horizontal=0;startSize=0;swimlaneHead=0;swimlaneBody=0;fillColor=none;collapsible=0;dropTarget=0;points=[[0,0.5],[1,0.5]];portConstraint=eastwest;top=0;left=0;right=0;bottom=1;fontSize=12;verticalAlign=middle;spacing=0;spacingTop=0;" parent="xLpc2Q17ecYwa52cMYqb-196" vertex="1">
          <mxGeometry y="180" width="180" height="30" as="geometry" />
        </mxCell>
        <mxCell id="xLpc2Q17ecYwa52cMYqb-201" value="FK" style="shape=partialRectangle;connectable=0;fillColor=none;top=0;left=0;bottom=0;right=0;fontStyle=1;overflow=hidden;fontSize=12;verticalAlign=middle;spacing=0;spacingTop=0;" parent="xLpc2Q17ecYwa52cMYqb-200" vertex="1">
          <mxGeometry width="20" height="30" as="geometry">
            <mxRectangle width="20" height="30" as="alternateBounds" />
          </mxGeometry>
        </mxCell>
        <mxCell id="xLpc2Q17ecYwa52cMYqb-202" value="user_id" style="shape=partialRectangle;connectable=0;fillColor=none;top=0;left=0;bottom=0;right=0;align=left;spacingLeft=6;fontStyle=5;overflow=hidden;fontSize=12;verticalAlign=middle;spacing=0;spacingTop=0;" parent="xLpc2Q17ecYwa52cMYqb-200" vertex="1">
          <mxGeometry x="20" width="160" height="30" as="geometry">
            <mxRectangle width="160" height="30" as="alternateBounds" />
          </mxGeometry>
        </mxCell>
        <mxCell id="xLpc2Q17ecYwa52cMYqb-203" value="" style="shape=tableRow;horizontal=0;startSize=0;swimlaneHead=0;swimlaneBody=0;fillColor=none;collapsible=0;dropTarget=0;points=[[0,0.5],[1,0.5]];portConstraint=eastwest;top=0;left=0;right=0;bottom=0;fontSize=12;verticalAlign=middle;spacing=0;spacingTop=0;" parent="xLpc2Q17ecYwa52cMYqb-196" vertex="1">
          <mxGeometry y="210" width="180" height="30" as="geometry" />
        </mxCell>
        <mxCell id="xLpc2Q17ecYwa52cMYqb-204" value="" style="shape=partialRectangle;connectable=0;fillColor=none;top=0;left=0;bottom=0;right=0;editable=1;overflow=hidden;fontSize=12;verticalAlign=middle;spacing=0;spacingTop=0;" parent="xLpc2Q17ecYwa52cMYqb-203" vertex="1">
          <mxGeometry width="20" height="30" as="geometry">
            <mxRectangle width="20" height="30" as="alternateBounds" />
          </mxGeometry>
        </mxCell>
        <mxCell id="xLpc2Q17ecYwa52cMYqb-205" value="name_orchard" style="shape=partialRectangle;connectable=0;fillColor=none;top=0;left=0;bottom=0;right=0;align=left;spacingLeft=6;overflow=hidden;fontSize=12;verticalAlign=middle;spacing=0;spacingTop=0;" parent="xLpc2Q17ecYwa52cMYqb-203" vertex="1">
          <mxGeometry x="20" width="160" height="30" as="geometry">
            <mxRectangle width="160" height="30" as="alternateBounds" />
          </mxGeometry>
        </mxCell>
        <mxCell id="xLpc2Q17ecYwa52cMYqb-206" value="" style="shape=tableRow;horizontal=0;startSize=0;swimlaneHead=0;swimlaneBody=0;fillColor=none;collapsible=0;dropTarget=0;points=[[0,0.5],[1,0.5]];portConstraint=eastwest;top=0;left=0;right=0;bottom=0;fontSize=12;verticalAlign=middle;spacing=0;spacingTop=0;" parent="xLpc2Q17ecYwa52cMYqb-196" vertex="1">
          <mxGeometry y="240" width="180" height="30" as="geometry" />
        </mxCell>
        <mxCell id="xLpc2Q17ecYwa52cMYqb-207" value="" style="shape=partialRectangle;connectable=0;fillColor=none;top=0;left=0;bottom=0;right=0;editable=1;overflow=hidden;fontSize=12;verticalAlign=middle;spacing=0;spacingTop=0;" parent="xLpc2Q17ecYwa52cMYqb-206" vertex="1">
          <mxGeometry width="20" height="30" as="geometry">
            <mxRectangle width="20" height="30" as="alternateBounds" />
          </mxGeometry>
        </mxCell>
        <mxCell id="xLpc2Q17ecYwa52cMYqb-208" value="image" style="shape=partialRectangle;connectable=0;fillColor=none;top=0;left=0;bottom=0;right=0;align=left;spacingLeft=6;overflow=hidden;fontSize=12;verticalAlign=middle;spacing=0;spacingTop=0;" parent="xLpc2Q17ecYwa52cMYqb-206" vertex="1">
          <mxGeometry x="20" width="160" height="30" as="geometry">
            <mxRectangle width="160" height="30" as="alternateBounds" />
          </mxGeometry>
        </mxCell>
        <mxCell id="xLpc2Q17ecYwa52cMYqb-218" style="shape=tableRow;horizontal=0;startSize=0;swimlaneHead=0;swimlaneBody=0;fillColor=none;collapsible=0;dropTarget=0;points=[[0,0.5],[1,0.5]];portConstraint=eastwest;top=0;left=0;right=0;bottom=0;fontSize=12;verticalAlign=middle;spacing=0;spacingTop=0;" parent="xLpc2Q17ecYwa52cMYqb-196" vertex="1">
          <mxGeometry y="270" width="180" height="30" as="geometry" />
        </mxCell>
        <mxCell id="xLpc2Q17ecYwa52cMYqb-219" style="shape=partialRectangle;connectable=0;fillColor=none;top=0;left=0;bottom=0;right=0;editable=1;overflow=hidden;fontSize=12;verticalAlign=middle;spacing=0;spacingTop=0;" parent="xLpc2Q17ecYwa52cMYqb-218" vertex="1">
          <mxGeometry width="20" height="30" as="geometry">
            <mxRectangle width="20" height="30" as="alternateBounds" />
          </mxGeometry>
        </mxCell>
        <mxCell id="xLpc2Q17ecYwa52cMYqb-220" value="location_orchard" style="shape=partialRectangle;connectable=0;fillColor=none;top=0;left=0;bottom=0;right=0;align=left;spacingLeft=6;overflow=hidden;fontSize=12;verticalAlign=middle;spacing=0;spacingTop=0;" parent="xLpc2Q17ecYwa52cMYqb-218" vertex="1">
          <mxGeometry x="20" width="160" height="30" as="geometry">
            <mxRectangle width="160" height="30" as="alternateBounds" />
          </mxGeometry>
        </mxCell>
        <mxCell id="xLpc2Q17ecYwa52cMYqb-215" style="shape=tableRow;horizontal=0;startSize=0;swimlaneHead=0;swimlaneBody=0;fillColor=none;collapsible=0;dropTarget=0;points=[[0,0.5],[1,0.5]];portConstraint=eastwest;top=0;left=0;right=0;bottom=0;fontSize=12;verticalAlign=middle;spacing=0;spacingTop=0;" parent="xLpc2Q17ecYwa52cMYqb-196" vertex="1">
          <mxGeometry y="300" width="180" height="30" as="geometry" />
        </mxCell>
        <mxCell id="xLpc2Q17ecYwa52cMYqb-216" style="shape=partialRectangle;connectable=0;fillColor=none;top=0;left=0;bottom=0;right=0;editable=1;overflow=hidden;fontSize=12;verticalAlign=middle;spacing=0;spacingTop=0;" parent="xLpc2Q17ecYwa52cMYqb-215" vertex="1">
          <mxGeometry width="20" height="30" as="geometry">
            <mxRectangle width="20" height="30" as="alternateBounds" />
          </mxGeometry>
        </mxCell>
        <mxCell id="xLpc2Q17ecYwa52cMYqb-217" value="latitude" style="shape=partialRectangle;connectable=0;fillColor=none;top=0;left=0;bottom=0;right=0;align=left;spacingLeft=6;overflow=hidden;fontSize=12;verticalAlign=middle;spacing=0;spacingTop=0;" parent="xLpc2Q17ecYwa52cMYqb-215" vertex="1">
          <mxGeometry x="20" width="160" height="30" as="geometry">
            <mxRectangle width="160" height="30" as="alternateBounds" />
          </mxGeometry>
        </mxCell>
        <mxCell id="xLpc2Q17ecYwa52cMYqb-212" style="shape=tableRow;horizontal=0;startSize=0;swimlaneHead=0;swimlaneBody=0;fillColor=none;collapsible=0;dropTarget=0;points=[[0,0.5],[1,0.5]];portConstraint=eastwest;top=0;left=0;right=0;bottom=0;fontSize=12;verticalAlign=middle;spacing=0;spacingTop=0;" parent="xLpc2Q17ecYwa52cMYqb-196" vertex="1">
          <mxGeometry y="330" width="180" height="30" as="geometry" />
        </mxCell>
        <mxCell id="xLpc2Q17ecYwa52cMYqb-213" style="shape=partialRectangle;connectable=0;fillColor=none;top=0;left=0;bottom=0;right=0;editable=1;overflow=hidden;fontSize=12;verticalAlign=middle;spacing=0;spacingTop=0;" parent="xLpc2Q17ecYwa52cMYqb-212" vertex="1">
          <mxGeometry width="20" height="30" as="geometry">
            <mxRectangle width="20" height="30" as="alternateBounds" />
          </mxGeometry>
        </mxCell>
        <mxCell id="xLpc2Q17ecYwa52cMYqb-214" value="longitude" style="shape=partialRectangle;connectable=0;fillColor=none;top=0;left=0;bottom=0;right=0;align=left;spacingLeft=6;overflow=hidden;fontSize=12;verticalAlign=middle;spacing=0;spacingTop=0;" parent="xLpc2Q17ecYwa52cMYqb-212" vertex="1">
          <mxGeometry x="20" width="160" height="30" as="geometry">
            <mxRectangle width="160" height="30" as="alternateBounds" />
          </mxGeometry>
        </mxCell>
        <mxCell id="xLpc2Q17ecYwa52cMYqb-209" style="shape=tableRow;horizontal=0;startSize=0;swimlaneHead=0;swimlaneBody=0;fillColor=none;collapsible=0;dropTarget=0;points=[[0,0.5],[1,0.5]];portConstraint=eastwest;top=0;left=0;right=0;bottom=0;fontSize=12;verticalAlign=middle;spacing=0;spacingTop=0;" parent="xLpc2Q17ecYwa52cMYqb-196" vertex="1">
          <mxGeometry y="360" width="180" height="30" as="geometry" />
        </mxCell>
        <mxCell id="xLpc2Q17ecYwa52cMYqb-210" style="shape=partialRectangle;connectable=0;fillColor=none;top=0;left=0;bottom=0;right=0;editable=1;overflow=hidden;fontSize=12;verticalAlign=middle;spacing=0;spacingTop=0;" parent="xLpc2Q17ecYwa52cMYqb-209" vertex="1">
          <mxGeometry width="20" height="30" as="geometry">
            <mxRectangle width="20" height="30" as="alternateBounds" />
          </mxGeometry>
        </mxCell>
        <mxCell id="xLpc2Q17ecYwa52cMYqb-211" value="lenght" style="shape=partialRectangle;connectable=0;fillColor=none;top=0;left=0;bottom=0;right=0;align=left;spacingLeft=6;overflow=hidden;fontSize=12;verticalAlign=middle;spacing=0;spacingTop=0;" parent="xLpc2Q17ecYwa52cMYqb-209" vertex="1">
          <mxGeometry x="20" width="160" height="30" as="geometry">
            <mxRectangle width="160" height="30" as="alternateBounds" />
          </mxGeometry>
        </mxCell>
        <mxCell id="xLpc2Q17ecYwa52cMYqb-227" style="shape=tableRow;horizontal=0;startSize=0;swimlaneHead=0;swimlaneBody=0;fillColor=none;collapsible=0;dropTarget=0;points=[[0,0.5],[1,0.5]];portConstraint=eastwest;top=0;left=0;right=0;bottom=0;fontSize=12;verticalAlign=middle;spacing=0;spacingTop=0;" parent="xLpc2Q17ecYwa52cMYqb-196" vertex="1">
          <mxGeometry y="390" width="180" height="30" as="geometry" />
        </mxCell>
        <mxCell id="xLpc2Q17ecYwa52cMYqb-228" style="shape=partialRectangle;connectable=0;fillColor=none;top=0;left=0;bottom=0;right=0;editable=1;overflow=hidden;fontSize=12;verticalAlign=middle;spacing=0;spacingTop=0;" parent="xLpc2Q17ecYwa52cMYqb-227" vertex="1">
          <mxGeometry width="20" height="30" as="geometry">
            <mxRectangle width="20" height="30" as="alternateBounds" />
          </mxGeometry>
        </mxCell>
        <mxCell id="xLpc2Q17ecYwa52cMYqb-229" value="surface" style="shape=partialRectangle;connectable=0;fillColor=none;top=0;left=0;bottom=0;right=0;align=left;spacingLeft=6;overflow=hidden;fontSize=12;verticalAlign=middle;spacing=0;spacingTop=0;" parent="xLpc2Q17ecYwa52cMYqb-227" vertex="1">
          <mxGeometry x="20" width="160" height="30" as="geometry">
            <mxRectangle width="160" height="30" as="alternateBounds" />
          </mxGeometry>
        </mxCell>
        <mxCell id="xLpc2Q17ecYwa52cMYqb-224" style="shape=tableRow;horizontal=0;startSize=0;swimlaneHead=0;swimlaneBody=0;fillColor=none;collapsible=0;dropTarget=0;points=[[0,0.5],[1,0.5]];portConstraint=eastwest;top=0;left=0;right=0;bottom=0;fontSize=12;verticalAlign=middle;spacing=0;spacingTop=0;" parent="xLpc2Q17ecYwa52cMYqb-196" vertex="1">
          <mxGeometry y="420" width="180" height="30" as="geometry" />
        </mxCell>
        <mxCell id="xLpc2Q17ecYwa52cMYqb-225" style="shape=partialRectangle;connectable=0;fillColor=none;top=0;left=0;bottom=0;right=0;editable=1;overflow=hidden;fontSize=12;verticalAlign=middle;spacing=0;spacingTop=0;" parent="xLpc2Q17ecYwa52cMYqb-224" vertex="1">
          <mxGeometry width="20" height="30" as="geometry">
            <mxRectangle width="20" height="30" as="alternateBounds" />
          </mxGeometry>
        </mxCell>
        <mxCell id="xLpc2Q17ecYwa52cMYqb-226" value="state" style="shape=partialRectangle;connectable=0;fillColor=none;top=0;left=0;bottom=0;right=0;align=left;spacingLeft=6;overflow=hidden;fontSize=12;verticalAlign=middle;spacing=0;spacingTop=0;" parent="xLpc2Q17ecYwa52cMYqb-224" vertex="1">
          <mxGeometry x="20" width="160" height="30" as="geometry">
            <mxRectangle width="160" height="30" as="alternateBounds" />
          </mxGeometry>
        </mxCell>
        <mxCell id="MfyLsWGhFaBwBQXPZ9hn-1" style="shape=tableRow;horizontal=0;startSize=0;swimlaneHead=0;swimlaneBody=0;fillColor=none;collapsible=0;dropTarget=0;points=[[0,0.5],[1,0.5]];portConstraint=eastwest;top=0;left=0;right=0;bottom=0;fontSize=12;verticalAlign=middle;spacing=0;spacingTop=0;" vertex="1" parent="xLpc2Q17ecYwa52cMYqb-196">
          <mxGeometry y="450" width="180" height="30" as="geometry" />
        </mxCell>
        <mxCell id="MfyLsWGhFaBwBQXPZ9hn-2" style="shape=partialRectangle;connectable=0;fillColor=none;top=0;left=0;bottom=0;right=0;editable=1;overflow=hidden;fontSize=12;verticalAlign=middle;spacing=0;spacingTop=0;" vertex="1" parent="MfyLsWGhFaBwBQXPZ9hn-1">
          <mxGeometry width="20" height="30" as="geometry">
            <mxRectangle width="20" height="30" as="alternateBounds" />
          </mxGeometry>
        </mxCell>
        <mxCell id="MfyLsWGhFaBwBQXPZ9hn-3" value="creation_year" style="shape=partialRectangle;connectable=0;fillColor=none;top=0;left=0;bottom=0;right=0;align=left;spacingLeft=6;overflow=hidden;fontSize=12;verticalAlign=middle;spacing=0;spacingTop=0;" vertex="1" parent="MfyLsWGhFaBwBQXPZ9hn-1">
          <mxGeometry x="20" width="160" height="30" as="geometry">
            <mxRectangle width="160" height="30" as="alternateBounds" />
          </mxGeometry>
        </mxCell>
        <mxCell id="MfyLsWGhFaBwBQXPZ9hn-4" style="shape=tableRow;horizontal=0;startSize=0;swimlaneHead=0;swimlaneBody=0;fillColor=none;collapsible=0;dropTarget=0;points=[[0,0.5],[1,0.5]];portConstraint=eastwest;top=0;left=0;right=0;bottom=0;fontSize=12;verticalAlign=middle;spacing=0;spacingTop=0;" vertex="1" parent="xLpc2Q17ecYwa52cMYqb-196">
          <mxGeometry y="480" width="180" height="30" as="geometry" />
        </mxCell>
        <mxCell id="MfyLsWGhFaBwBQXPZ9hn-5" style="shape=partialRectangle;connectable=0;fillColor=none;top=0;left=0;bottom=0;right=0;editable=1;overflow=hidden;fontSize=12;verticalAlign=middle;spacing=0;spacingTop=0;" vertex="1" parent="MfyLsWGhFaBwBQXPZ9hn-4">
          <mxGeometry width="20" height="30" as="geometry">
            <mxRectangle width="20" height="30" as="alternateBounds" />
          </mxGeometry>
        </mxCell>
        <mxCell id="MfyLsWGhFaBwBQXPZ9hn-6" value="planting_density" style="shape=partialRectangle;connectable=0;fillColor=none;top=0;left=0;bottom=0;right=0;align=left;spacingLeft=6;overflow=hidden;fontSize=12;verticalAlign=middle;spacing=0;spacingTop=0;" vertex="1" parent="MfyLsWGhFaBwBQXPZ9hn-4">
          <mxGeometry x="20" width="160" height="30" as="geometry">
            <mxRectangle width="160" height="30" as="alternateBounds" />
          </mxGeometry>
        </mxCell>
        <mxCell id="MfyLsWGhFaBwBQXPZ9hn-75" style="shape=tableRow;horizontal=0;startSize=0;swimlaneHead=0;swimlaneBody=0;fillColor=none;collapsible=0;dropTarget=0;points=[[0,0.5],[1,0.5]];portConstraint=eastwest;top=0;left=0;right=0;bottom=0;fontSize=12;verticalAlign=middle;spacing=0;spacingTop=0;" vertex="1" parent="xLpc2Q17ecYwa52cMYqb-196">
          <mxGeometry y="510" width="180" height="30" as="geometry" />
        </mxCell>
        <mxCell id="MfyLsWGhFaBwBQXPZ9hn-76" style="shape=partialRectangle;connectable=0;fillColor=none;top=0;left=0;bottom=0;right=0;editable=1;overflow=hidden;fontSize=12;verticalAlign=middle;spacing=0;spacingTop=0;" vertex="1" parent="MfyLsWGhFaBwBQXPZ9hn-75">
          <mxGeometry width="20" height="30" as="geometry">
            <mxRectangle width="20" height="30" as="alternateBounds" />
          </mxGeometry>
        </mxCell>
        <mxCell id="MfyLsWGhFaBwBQXPZ9hn-77" value="inrrigation" style="shape=partialRectangle;connectable=0;fillColor=none;top=0;left=0;bottom=0;right=0;align=left;spacingLeft=6;overflow=hidden;fontSize=12;verticalAlign=middle;spacing=0;spacingTop=0;" vertex="1" parent="MfyLsWGhFaBwBQXPZ9hn-75">
          <mxGeometry x="20" width="160" height="30" as="geometry">
            <mxRectangle width="160" height="30" as="alternateBounds" />
          </mxGeometry>
        </mxCell>
        <mxCell id="xLpc2Q17ecYwa52cMYqb-256" value="" style="edgeStyle=entityRelationEdgeStyle;fontSize=12;html=1;endArrow=ERoneToMany;rounded=0;exitX=1;exitY=0.5;exitDx=0;exitDy=0;entryX=0;entryY=0.5;entryDx=0;entryDy=0;verticalAlign=middle;spacing=0;spacingTop=0;" parent="1" source="xLpc2Q17ecYwa52cMYqb-142" target="xLpc2Q17ecYwa52cMYqb-242" edge="1">
          <mxGeometry width="100" height="100" relative="1" as="geometry">
            <mxPoint x="340" y="430" as="sourcePoint" />
            <mxPoint x="440" y="330" as="targetPoint" />
          </mxGeometry>
        </mxCell>
        <mxCell id="xLpc2Q17ecYwa52cMYqb-258" value="" style="edgeStyle=entityRelationEdgeStyle;fontSize=12;html=1;endArrow=ERoneToMany;rounded=0;verticalAlign=middle;spacing=0;spacingTop=0;" parent="1" source="xLpc2Q17ecYwa52cMYqb-100" target="xLpc2Q17ecYwa52cMYqb-200" edge="1">
          <mxGeometry width="100" height="100" relative="1" as="geometry">
            <mxPoint x="340" y="430" as="sourcePoint" />
            <mxPoint x="440" y="330" as="targetPoint" />
          </mxGeometry>
        </mxCell>
        <mxCell id="xLpc2Q17ecYwa52cMYqb-260" value="" style="edgeStyle=entityRelationEdgeStyle;fontSize=12;html=1;endArrow=ERoneToMany;rounded=0;exitX=0;exitY=0.5;exitDx=0;exitDy=0;entryX=1;entryY=0.5;entryDx=0;entryDy=0;verticalAlign=middle;spacing=0;spacingTop=0;" parent="1" source="xLpc2Q17ecYwa52cMYqb-176" target="xLpc2Q17ecYwa52cMYqb-251" edge="1">
          <mxGeometry width="100" height="100" relative="1" as="geometry">
            <mxPoint x="340" y="430" as="sourcePoint" />
            <mxPoint x="470" y="410" as="targetPoint" />
          </mxGeometry>
        </mxCell>
        <mxCell id="xLpc2Q17ecYwa52cMYqb-261" value="" style="edgeStyle=entityRelationEdgeStyle;fontSize=12;html=1;endArrow=ERoneToMany;rounded=0;entryX=1;entryY=0.5;entryDx=0;entryDy=0;verticalAlign=middle;spacing=0;spacingTop=0;" parent="1" source="xLpc2Q17ecYwa52cMYqb-166" target="xLpc2Q17ecYwa52cMYqb-248" edge="1">
          <mxGeometry width="100" height="100" relative="1" as="geometry">
            <mxPoint x="340" y="430" as="sourcePoint" />
            <mxPoint x="440" y="330" as="targetPoint" />
          </mxGeometry>
        </mxCell>
        <mxCell id="xLpc2Q17ecYwa52cMYqb-262" value="types_topographic" style="shape=table;startSize=30;container=1;collapsible=1;childLayout=tableLayout;fixedRows=1;rowLines=0;fontStyle=1;align=center;resizeLast=1;fontSize=12;verticalAlign=middle;spacing=0;spacingTop=0;" parent="1" vertex="1">
          <mxGeometry x="560" y="180" width="180" height="100" as="geometry" />
        </mxCell>
        <mxCell id="xLpc2Q17ecYwa52cMYqb-263" value="" style="shape=tableRow;horizontal=0;startSize=0;swimlaneHead=0;swimlaneBody=0;fillColor=none;collapsible=0;dropTarget=0;points=[[0,0.5],[1,0.5]];portConstraint=eastwest;top=0;left=0;right=0;bottom=1;fontSize=12;verticalAlign=middle;spacing=0;spacingTop=0;" parent="xLpc2Q17ecYwa52cMYqb-262" vertex="1">
          <mxGeometry y="30" width="180" height="30" as="geometry" />
        </mxCell>
        <mxCell id="xLpc2Q17ecYwa52cMYqb-264" value="PK" style="shape=partialRectangle;connectable=0;fillColor=none;top=0;left=0;bottom=0;right=0;fontStyle=1;overflow=hidden;fontSize=12;verticalAlign=middle;spacing=0;spacingTop=0;" parent="xLpc2Q17ecYwa52cMYqb-263" vertex="1">
          <mxGeometry width="40" height="30" as="geometry">
            <mxRectangle width="40" height="30" as="alternateBounds" />
          </mxGeometry>
        </mxCell>
        <mxCell id="xLpc2Q17ecYwa52cMYqb-265" value="id" style="shape=partialRectangle;connectable=0;fillColor=none;top=0;left=0;bottom=0;right=0;align=left;spacingLeft=6;fontStyle=5;overflow=hidden;fontSize=12;verticalAlign=middle;spacing=0;spacingTop=0;" parent="xLpc2Q17ecYwa52cMYqb-263" vertex="1">
          <mxGeometry x="40" width="140" height="30" as="geometry">
            <mxRectangle width="140" height="30" as="alternateBounds" />
          </mxGeometry>
        </mxCell>
        <mxCell id="xLpc2Q17ecYwa52cMYqb-266" value="" style="shape=tableRow;horizontal=0;startSize=0;swimlaneHead=0;swimlaneBody=0;fillColor=none;collapsible=0;dropTarget=0;points=[[0,0.5],[1,0.5]];portConstraint=eastwest;top=0;left=0;right=0;bottom=0;fontSize=12;verticalAlign=middle;spacing=0;spacingTop=0;" parent="xLpc2Q17ecYwa52cMYqb-262" vertex="1">
          <mxGeometry y="60" width="180" height="30" as="geometry" />
        </mxCell>
        <mxCell id="xLpc2Q17ecYwa52cMYqb-267" value="" style="shape=partialRectangle;connectable=0;fillColor=none;top=0;left=0;bottom=0;right=0;editable=1;overflow=hidden;fontSize=12;verticalAlign=middle;spacing=0;spacingTop=0;" parent="xLpc2Q17ecYwa52cMYqb-266" vertex="1">
          <mxGeometry width="40" height="30" as="geometry">
            <mxRectangle width="40" height="30" as="alternateBounds" />
          </mxGeometry>
        </mxCell>
        <mxCell id="xLpc2Q17ecYwa52cMYqb-268" value="type_topography" style="shape=partialRectangle;connectable=0;fillColor=none;top=0;left=0;bottom=0;right=0;align=left;spacingLeft=6;overflow=hidden;fontSize=12;verticalAlign=middle;spacing=0;spacingTop=0;" parent="xLpc2Q17ecYwa52cMYqb-266" vertex="1">
          <mxGeometry x="40" width="140" height="30" as="geometry">
            <mxRectangle width="140" height="30" as="alternateBounds" />
          </mxGeometry>
        </mxCell>
        <mxCell id="xLpc2Q17ecYwa52cMYqb-272" value="" style="edgeStyle=entityRelationEdgeStyle;fontSize=12;html=1;endArrow=ERoneToMany;rounded=0;exitX=0;exitY=0.5;exitDx=0;exitDy=0;entryX=1;entryY=0.5;entryDx=0;entryDy=0;verticalAlign=middle;spacing=0;spacingTop=0;" parent="1" source="xLpc2Q17ecYwa52cMYqb-263" target="xLpc2Q17ecYwa52cMYqb-239" edge="1">
          <mxGeometry width="100" height="100" relative="1" as="geometry">
            <mxPoint x="340" y="430" as="sourcePoint" />
            <mxPoint x="440" y="330" as="targetPoint" />
          </mxGeometry>
        </mxCell>
        <mxCell id="xLpc2Q17ecYwa52cMYqb-273" value="fertilization_plans" style="shape=table;startSize=30;container=1;collapsible=1;childLayout=tableLayout;fixedRows=1;rowLines=0;fontStyle=1;align=center;resizeLast=1;fontSize=12;verticalAlign=middle;spacing=0;spacingTop=0;html=1;" parent="1" vertex="1">
          <mxGeometry y="-370" width="180" height="160" as="geometry" />
        </mxCell>
        <mxCell id="xLpc2Q17ecYwa52cMYqb-274" value="" style="shape=tableRow;horizontal=0;startSize=0;swimlaneHead=0;swimlaneBody=0;fillColor=none;collapsible=0;dropTarget=0;points=[[0,0.5],[1,0.5]];portConstraint=eastwest;top=0;left=0;right=0;bottom=0;fontSize=12;verticalAlign=middle;spacing=0;spacingTop=0;" parent="xLpc2Q17ecYwa52cMYqb-273" vertex="1">
          <mxGeometry y="30" width="180" height="30" as="geometry" />
        </mxCell>
        <mxCell id="xLpc2Q17ecYwa52cMYqb-275" value="PK" style="shape=partialRectangle;connectable=0;fillColor=none;top=0;left=0;bottom=0;right=0;fontStyle=1;overflow=hidden;fontSize=12;verticalAlign=middle;spacing=0;spacingTop=0;" parent="xLpc2Q17ecYwa52cMYqb-274" vertex="1">
          <mxGeometry width="40" height="30" as="geometry">
            <mxRectangle width="40" height="30" as="alternateBounds" />
          </mxGeometry>
        </mxCell>
        <mxCell id="xLpc2Q17ecYwa52cMYqb-276" value="id" style="shape=partialRectangle;connectable=0;fillColor=none;top=0;left=0;bottom=0;right=0;align=left;spacingLeft=6;fontStyle=5;overflow=hidden;fontSize=12;verticalAlign=middle;spacing=0;spacingTop=0;" parent="xLpc2Q17ecYwa52cMYqb-274" vertex="1">
          <mxGeometry x="40" width="140" height="30" as="geometry">
            <mxRectangle width="140" height="30" as="alternateBounds" />
          </mxGeometry>
        </mxCell>
        <mxCell id="xLpc2Q17ecYwa52cMYqb-277" value="" style="shape=tableRow;horizontal=0;startSize=0;swimlaneHead=0;swimlaneBody=0;fillColor=none;collapsible=0;dropTarget=0;points=[[0,0.5],[1,0.5]];portConstraint=eastwest;top=0;left=0;right=0;bottom=1;fontSize=12;verticalAlign=middle;spacing=0;spacingTop=0;" parent="xLpc2Q17ecYwa52cMYqb-273" vertex="1">
          <mxGeometry y="60" width="180" height="30" as="geometry" />
        </mxCell>
        <mxCell id="xLpc2Q17ecYwa52cMYqb-278" value="FK" style="shape=partialRectangle;connectable=0;fillColor=none;top=0;left=0;bottom=0;right=0;fontStyle=1;overflow=hidden;fontSize=12;verticalAlign=middle;spacing=0;spacingTop=0;" parent="xLpc2Q17ecYwa52cMYqb-277" vertex="1">
          <mxGeometry width="40" height="30" as="geometry">
            <mxRectangle width="40" height="30" as="alternateBounds" />
          </mxGeometry>
        </mxCell>
        <mxCell id="xLpc2Q17ecYwa52cMYqb-279" value="orchard_id" style="shape=partialRectangle;connectable=0;fillColor=none;top=0;left=0;bottom=0;right=0;align=left;spacingLeft=6;fontStyle=5;overflow=hidden;fontSize=12;verticalAlign=middle;spacing=0;spacingTop=0;" parent="xLpc2Q17ecYwa52cMYqb-277" vertex="1">
          <mxGeometry x="40" width="140" height="30" as="geometry">
            <mxRectangle width="140" height="30" as="alternateBounds" />
          </mxGeometry>
        </mxCell>
        <mxCell id="xLpc2Q17ecYwa52cMYqb-280" value="" style="shape=tableRow;horizontal=0;startSize=0;swimlaneHead=0;swimlaneBody=0;fillColor=none;collapsible=0;dropTarget=0;points=[[0,0.5],[1,0.5]];portConstraint=eastwest;top=0;left=0;right=0;bottom=0;fontSize=12;verticalAlign=middle;spacing=0;spacingTop=0;" parent="xLpc2Q17ecYwa52cMYqb-273" vertex="1">
          <mxGeometry y="90" width="180" height="30" as="geometry" />
        </mxCell>
        <mxCell id="xLpc2Q17ecYwa52cMYqb-281" value="" style="shape=partialRectangle;connectable=0;fillColor=none;top=0;left=0;bottom=0;right=0;editable=1;overflow=hidden;fontSize=12;verticalAlign=middle;spacing=0;spacingTop=0;" parent="xLpc2Q17ecYwa52cMYqb-280" vertex="1">
          <mxGeometry width="40" height="30" as="geometry">
            <mxRectangle width="40" height="30" as="alternateBounds" />
          </mxGeometry>
        </mxCell>
        <mxCell id="xLpc2Q17ecYwa52cMYqb-282" value="date_fetilization" style="shape=partialRectangle;connectable=0;fillColor=none;top=0;left=0;bottom=0;right=0;align=left;spacingLeft=6;overflow=hidden;fontSize=12;verticalAlign=middle;spacing=0;spacingTop=0;" parent="xLpc2Q17ecYwa52cMYqb-280" vertex="1">
          <mxGeometry x="40" width="140" height="30" as="geometry">
            <mxRectangle width="140" height="30" as="alternateBounds" />
          </mxGeometry>
        </mxCell>
        <mxCell id="xLpc2Q17ecYwa52cMYqb-316" style="shape=tableRow;horizontal=0;startSize=0;swimlaneHead=0;swimlaneBody=0;fillColor=none;collapsible=0;dropTarget=0;points=[[0,0.5],[1,0.5]];portConstraint=eastwest;top=0;left=0;right=0;bottom=0;fontSize=12;verticalAlign=middle;spacing=0;spacingTop=0;" parent="xLpc2Q17ecYwa52cMYqb-273" vertex="1">
          <mxGeometry y="120" width="180" height="30" as="geometry" />
        </mxCell>
        <mxCell id="xLpc2Q17ecYwa52cMYqb-317" style="shape=partialRectangle;connectable=0;fillColor=none;top=0;left=0;bottom=0;right=0;editable=1;overflow=hidden;fontSize=12;verticalAlign=middle;spacing=0;spacingTop=0;" parent="xLpc2Q17ecYwa52cMYqb-316" vertex="1">
          <mxGeometry width="40" height="30" as="geometry">
            <mxRectangle width="40" height="30" as="alternateBounds" />
          </mxGeometry>
        </mxCell>
        <mxCell id="xLpc2Q17ecYwa52cMYqb-318" value="file" style="shape=partialRectangle;connectable=0;fillColor=none;top=0;left=0;bottom=0;right=0;align=left;spacingLeft=6;overflow=hidden;fontSize=12;verticalAlign=middle;spacing=0;spacingTop=0;" parent="xLpc2Q17ecYwa52cMYqb-316" vertex="1">
          <mxGeometry x="40" width="140" height="30" as="geometry">
            <mxRectangle width="140" height="30" as="alternateBounds" />
          </mxGeometry>
        </mxCell>
        <mxCell id="xLpc2Q17ecYwa52cMYqb-322" value="" style="edgeStyle=entityRelationEdgeStyle;fontSize=12;html=1;endArrow=ERoneToMany;rounded=0;entryX=1.022;entryY=0.8;entryDx=0;entryDy=0;entryPerimeter=0;exitX=0;exitY=0.5;exitDx=0;exitDy=0;" parent="1" source="xLpc2Q17ecYwa52cMYqb-197" target="xLpc2Q17ecYwa52cMYqb-277" edge="1">
          <mxGeometry width="100" height="100" relative="1" as="geometry">
            <mxPoint x="520" y="710" as="sourcePoint" />
            <mxPoint x="620" y="610" as="targetPoint" />
          </mxGeometry>
        </mxCell>
        <mxCell id="xLpc2Q17ecYwa52cMYqb-323" value="annual_productios" style="shape=table;startSize=30;container=1;collapsible=1;childLayout=tableLayout;fixedRows=1;rowLines=0;fontStyle=1;align=center;resizeLast=1;fontSize=12;verticalAlign=middle;spacing=0;spacingTop=0;" parent="1" vertex="1">
          <mxGeometry x="750" y="280" width="180" height="220" as="geometry" />
        </mxCell>
        <mxCell id="xLpc2Q17ecYwa52cMYqb-324" value="" style="shape=tableRow;horizontal=0;startSize=0;swimlaneHead=0;swimlaneBody=0;fillColor=none;collapsible=0;dropTarget=0;points=[[0,0.5],[1,0.5]];portConstraint=eastwest;top=0;left=0;right=0;bottom=0;fontSize=12;verticalAlign=middle;spacing=0;spacingTop=0;" parent="xLpc2Q17ecYwa52cMYqb-323" vertex="1">
          <mxGeometry y="30" width="180" height="30" as="geometry" />
        </mxCell>
        <mxCell id="xLpc2Q17ecYwa52cMYqb-325" value="PK" style="shape=partialRectangle;connectable=0;fillColor=none;top=0;left=0;bottom=0;right=0;fontStyle=1;overflow=hidden;fontSize=12;verticalAlign=middle;spacing=0;spacingTop=0;" parent="xLpc2Q17ecYwa52cMYqb-324" vertex="1">
          <mxGeometry width="40" height="30" as="geometry">
            <mxRectangle width="40" height="30" as="alternateBounds" />
          </mxGeometry>
        </mxCell>
        <mxCell id="xLpc2Q17ecYwa52cMYqb-326" value="id" style="shape=partialRectangle;connectable=0;fillColor=none;top=0;left=0;bottom=0;right=0;align=left;spacingLeft=6;fontStyle=5;overflow=hidden;fontSize=12;verticalAlign=middle;spacing=0;spacingTop=0;" parent="xLpc2Q17ecYwa52cMYqb-324" vertex="1">
          <mxGeometry x="40" width="140" height="30" as="geometry">
            <mxRectangle width="140" height="30" as="alternateBounds" />
          </mxGeometry>
        </mxCell>
        <mxCell id="xLpc2Q17ecYwa52cMYqb-327" value="" style="shape=tableRow;horizontal=0;startSize=0;swimlaneHead=0;swimlaneBody=0;fillColor=none;collapsible=0;dropTarget=0;points=[[0,0.5],[1,0.5]];portConstraint=eastwest;top=0;left=0;right=0;bottom=1;fontSize=12;verticalAlign=middle;spacing=0;spacingTop=0;" parent="xLpc2Q17ecYwa52cMYqb-323" vertex="1">
          <mxGeometry y="60" width="180" height="30" as="geometry" />
        </mxCell>
        <mxCell id="xLpc2Q17ecYwa52cMYqb-328" value="FK" style="shape=partialRectangle;connectable=0;fillColor=none;top=0;left=0;bottom=0;right=0;fontStyle=1;overflow=hidden;fontSize=12;verticalAlign=middle;spacing=0;spacingTop=0;" parent="xLpc2Q17ecYwa52cMYqb-327" vertex="1">
          <mxGeometry width="40" height="30" as="geometry">
            <mxRectangle width="40" height="30" as="alternateBounds" />
          </mxGeometry>
        </mxCell>
        <mxCell id="xLpc2Q17ecYwa52cMYqb-329" value="orchard_id" style="shape=partialRectangle;connectable=0;fillColor=none;top=0;left=0;bottom=0;right=0;align=left;spacingLeft=6;fontStyle=5;overflow=hidden;fontSize=12;verticalAlign=middle;spacing=0;spacingTop=0;" parent="xLpc2Q17ecYwa52cMYqb-327" vertex="1">
          <mxGeometry x="40" width="140" height="30" as="geometry">
            <mxRectangle width="140" height="30" as="alternateBounds" />
          </mxGeometry>
        </mxCell>
        <mxCell id="xLpc2Q17ecYwa52cMYqb-330" value="" style="shape=tableRow;horizontal=0;startSize=0;swimlaneHead=0;swimlaneBody=0;fillColor=none;collapsible=0;dropTarget=0;points=[[0,0.5],[1,0.5]];portConstraint=eastwest;top=0;left=0;right=0;bottom=0;fontSize=12;verticalAlign=middle;spacing=0;spacingTop=0;" parent="xLpc2Q17ecYwa52cMYqb-323" vertex="1">
          <mxGeometry y="90" width="180" height="30" as="geometry" />
        </mxCell>
        <mxCell id="xLpc2Q17ecYwa52cMYqb-331" value="" style="shape=partialRectangle;connectable=0;fillColor=none;top=0;left=0;bottom=0;right=0;editable=1;overflow=hidden;fontSize=12;verticalAlign=middle;spacing=0;spacingTop=0;" parent="xLpc2Q17ecYwa52cMYqb-330" vertex="1">
          <mxGeometry width="40" height="30" as="geometry">
            <mxRectangle width="40" height="30" as="alternateBounds" />
          </mxGeometry>
        </mxCell>
        <mxCell id="xLpc2Q17ecYwa52cMYqb-332" value="ton_harvest" style="shape=partialRectangle;connectable=0;fillColor=none;top=0;left=0;bottom=0;right=0;align=left;spacingLeft=6;overflow=hidden;fontSize=12;verticalAlign=middle;spacing=0;spacingTop=0;" parent="xLpc2Q17ecYwa52cMYqb-330" vertex="1">
          <mxGeometry x="40" width="140" height="30" as="geometry">
            <mxRectangle width="140" height="30" as="alternateBounds" />
          </mxGeometry>
        </mxCell>
        <mxCell id="xLpc2Q17ecYwa52cMYqb-333" value="" style="shape=tableRow;horizontal=0;startSize=0;swimlaneHead=0;swimlaneBody=0;fillColor=none;collapsible=0;dropTarget=0;points=[[0,0.5],[1,0.5]];portConstraint=eastwest;top=0;left=0;right=0;bottom=0;fontSize=12;verticalAlign=middle;spacing=0;spacingTop=0;" parent="xLpc2Q17ecYwa52cMYqb-323" vertex="1">
          <mxGeometry y="120" width="180" height="30" as="geometry" />
        </mxCell>
        <mxCell id="xLpc2Q17ecYwa52cMYqb-334" value="" style="shape=partialRectangle;connectable=0;fillColor=none;top=0;left=0;bottom=0;right=0;editable=1;overflow=hidden;fontSize=12;verticalAlign=middle;spacing=0;spacingTop=0;" parent="xLpc2Q17ecYwa52cMYqb-333" vertex="1">
          <mxGeometry width="40" height="30" as="geometry">
            <mxRectangle width="40" height="30" as="alternateBounds" />
          </mxGeometry>
        </mxCell>
        <mxCell id="xLpc2Q17ecYwa52cMYqb-335" value="date_production" style="shape=partialRectangle;connectable=0;fillColor=none;top=0;left=0;bottom=0;right=0;align=left;spacingLeft=6;overflow=hidden;fontSize=12;verticalAlign=middle;spacing=0;spacingTop=0;" parent="xLpc2Q17ecYwa52cMYqb-333" vertex="1">
          <mxGeometry x="40" width="140" height="30" as="geometry">
            <mxRectangle width="140" height="30" as="alternateBounds" />
          </mxGeometry>
        </mxCell>
        <mxCell id="xLpc2Q17ecYwa52cMYqb-336" style="shape=tableRow;horizontal=0;startSize=0;swimlaneHead=0;swimlaneBody=0;fillColor=none;collapsible=0;dropTarget=0;points=[[0,0.5],[1,0.5]];portConstraint=eastwest;top=0;left=0;right=0;bottom=0;fontSize=12;verticalAlign=middle;spacing=0;spacingTop=0;" parent="xLpc2Q17ecYwa52cMYqb-323" vertex="1">
          <mxGeometry y="150" width="180" height="30" as="geometry" />
        </mxCell>
        <mxCell id="xLpc2Q17ecYwa52cMYqb-337" style="shape=partialRectangle;connectable=0;fillColor=none;top=0;left=0;bottom=0;right=0;editable=1;overflow=hidden;fontSize=12;verticalAlign=middle;spacing=0;spacingTop=0;" parent="xLpc2Q17ecYwa52cMYqb-336" vertex="1">
          <mxGeometry width="40" height="30" as="geometry">
            <mxRectangle width="40" height="30" as="alternateBounds" />
          </mxGeometry>
        </mxCell>
        <mxCell id="xLpc2Q17ecYwa52cMYqb-338" value="sale" style="shape=partialRectangle;connectable=0;fillColor=none;top=0;left=0;bottom=0;right=0;align=left;spacingLeft=6;overflow=hidden;fontSize=12;verticalAlign=middle;spacing=0;spacingTop=0;" parent="xLpc2Q17ecYwa52cMYqb-336" vertex="1">
          <mxGeometry x="40" width="140" height="30" as="geometry">
            <mxRectangle width="140" height="30" as="alternateBounds" />
          </mxGeometry>
        </mxCell>
        <mxCell id="MfyLsWGhFaBwBQXPZ9hn-78" style="shape=tableRow;horizontal=0;startSize=0;swimlaneHead=0;swimlaneBody=0;fillColor=none;collapsible=0;dropTarget=0;points=[[0,0.5],[1,0.5]];portConstraint=eastwest;top=0;left=0;right=0;bottom=0;fontSize=12;verticalAlign=middle;spacing=0;spacingTop=0;" vertex="1" parent="xLpc2Q17ecYwa52cMYqb-323">
          <mxGeometry y="180" width="180" height="30" as="geometry" />
        </mxCell>
        <mxCell id="MfyLsWGhFaBwBQXPZ9hn-79" style="shape=partialRectangle;connectable=0;fillColor=none;top=0;left=0;bottom=0;right=0;editable=1;overflow=hidden;fontSize=12;verticalAlign=middle;spacing=0;spacingTop=0;" vertex="1" parent="MfyLsWGhFaBwBQXPZ9hn-78">
          <mxGeometry width="40" height="30" as="geometry">
            <mxRectangle width="40" height="30" as="alternateBounds" />
          </mxGeometry>
        </mxCell>
        <mxCell id="MfyLsWGhFaBwBQXPZ9hn-80" value="damage_porcentage" style="shape=partialRectangle;connectable=0;fillColor=none;top=0;left=0;bottom=0;right=0;align=left;spacingLeft=6;overflow=hidden;fontSize=12;verticalAlign=middle;spacing=0;spacingTop=0;" vertex="1" parent="MfyLsWGhFaBwBQXPZ9hn-78">
          <mxGeometry x="40" width="140" height="30" as="geometry">
            <mxRectangle width="140" height="30" as="alternateBounds" />
          </mxGeometry>
        </mxCell>
        <mxCell id="xLpc2Q17ecYwa52cMYqb-339" value="" style="edgeStyle=entityRelationEdgeStyle;fontSize=12;html=1;endArrow=ERoneToMany;rounded=0;" parent="1" source="xLpc2Q17ecYwa52cMYqb-197" target="xLpc2Q17ecYwa52cMYqb-327" edge="1">
          <mxGeometry width="100" height="100" relative="1" as="geometry">
            <mxPoint x="440" y="305" as="sourcePoint" />
            <mxPoint x="620" y="610" as="targetPoint" />
          </mxGeometry>
        </mxCell>
        <mxCell id="xLpc2Q17ecYwa52cMYqb-340" value="workdays" style="shape=table;startSize=30;container=1;collapsible=1;childLayout=tableLayout;fixedRows=1;rowLines=0;fontStyle=1;align=center;resizeLast=1;fontSize=12;verticalAlign=middle;spacing=0;spacingTop=0;" parent="1" vertex="1">
          <mxGeometry x="20" y="900" width="180" height="190" as="geometry" />
        </mxCell>
        <mxCell id="xLpc2Q17ecYwa52cMYqb-341" value="" style="shape=tableRow;horizontal=0;startSize=0;swimlaneHead=0;swimlaneBody=0;fillColor=none;collapsible=0;dropTarget=0;points=[[0,0.5],[1,0.5]];portConstraint=eastwest;top=0;left=0;right=0;bottom=0;fontSize=12;verticalAlign=middle;spacing=0;spacingTop=0;" parent="xLpc2Q17ecYwa52cMYqb-340" vertex="1">
          <mxGeometry y="30" width="180" height="30" as="geometry" />
        </mxCell>
        <mxCell id="xLpc2Q17ecYwa52cMYqb-342" value="PK" style="shape=partialRectangle;connectable=0;fillColor=none;top=0;left=0;bottom=0;right=0;fontStyle=1;overflow=hidden;fontSize=12;verticalAlign=middle;spacing=0;spacingTop=0;" parent="xLpc2Q17ecYwa52cMYqb-341" vertex="1">
          <mxGeometry width="40" height="30" as="geometry">
            <mxRectangle width="40" height="30" as="alternateBounds" />
          </mxGeometry>
        </mxCell>
        <mxCell id="xLpc2Q17ecYwa52cMYqb-343" value="id" style="shape=partialRectangle;connectable=0;fillColor=none;top=0;left=0;bottom=0;right=0;align=left;spacingLeft=6;fontStyle=5;overflow=hidden;fontSize=12;verticalAlign=middle;spacing=0;spacingTop=0;" parent="xLpc2Q17ecYwa52cMYqb-341" vertex="1">
          <mxGeometry x="40" width="140" height="30" as="geometry">
            <mxRectangle width="140" height="30" as="alternateBounds" />
          </mxGeometry>
        </mxCell>
        <mxCell id="xLpc2Q17ecYwa52cMYqb-353" style="shape=tableRow;horizontal=0;startSize=0;swimlaneHead=0;swimlaneBody=0;fillColor=none;collapsible=0;dropTarget=0;points=[[0,0.5],[1,0.5]];portConstraint=eastwest;top=0;left=0;right=0;bottom=0;fontSize=12;verticalAlign=middle;spacing=0;spacingTop=0;" parent="xLpc2Q17ecYwa52cMYqb-340" vertex="1">
          <mxGeometry y="60" width="180" height="30" as="geometry" />
        </mxCell>
        <mxCell id="xLpc2Q17ecYwa52cMYqb-354" value="FK" style="shape=partialRectangle;connectable=0;fillColor=none;top=0;left=0;bottom=0;right=0;fontStyle=1;overflow=hidden;fontSize=12;verticalAlign=middle;spacing=0;spacingTop=0;" parent="xLpc2Q17ecYwa52cMYqb-353" vertex="1">
          <mxGeometry width="40" height="30" as="geometry">
            <mxRectangle width="40" height="30" as="alternateBounds" />
          </mxGeometry>
        </mxCell>
        <mxCell id="xLpc2Q17ecYwa52cMYqb-355" value="user_id" style="shape=partialRectangle;connectable=0;fillColor=none;top=0;left=0;bottom=0;right=0;align=left;spacingLeft=6;fontStyle=5;overflow=hidden;fontSize=12;verticalAlign=middle;spacing=0;spacingTop=0;" parent="xLpc2Q17ecYwa52cMYqb-353" vertex="1">
          <mxGeometry x="40" width="140" height="30" as="geometry">
            <mxRectangle width="140" height="30" as="alternateBounds" />
          </mxGeometry>
        </mxCell>
        <mxCell id="xLpc2Q17ecYwa52cMYqb-344" value="" style="shape=tableRow;horizontal=0;startSize=0;swimlaneHead=0;swimlaneBody=0;fillColor=none;collapsible=0;dropTarget=0;points=[[0,0.5],[1,0.5]];portConstraint=eastwest;top=0;left=0;right=0;bottom=1;fontSize=12;verticalAlign=middle;spacing=0;spacingTop=0;" parent="xLpc2Q17ecYwa52cMYqb-340" vertex="1">
          <mxGeometry y="90" width="180" height="30" as="geometry" />
        </mxCell>
        <mxCell id="xLpc2Q17ecYwa52cMYqb-345" value="FK" style="shape=partialRectangle;connectable=0;fillColor=none;top=0;left=0;bottom=0;right=0;fontStyle=1;overflow=hidden;fontSize=12;verticalAlign=middle;spacing=0;spacingTop=0;" parent="xLpc2Q17ecYwa52cMYqb-344" vertex="1">
          <mxGeometry width="40" height="30" as="geometry">
            <mxRectangle width="40" height="30" as="alternateBounds" />
          </mxGeometry>
        </mxCell>
        <mxCell id="xLpc2Q17ecYwa52cMYqb-346" value="orchard_id" style="shape=partialRectangle;connectable=0;fillColor=none;top=0;left=0;bottom=0;right=0;align=left;spacingLeft=6;fontStyle=5;overflow=hidden;fontSize=12;verticalAlign=middle;spacing=0;spacingTop=0;" parent="xLpc2Q17ecYwa52cMYqb-344" vertex="1">
          <mxGeometry x="40" width="140" height="30" as="geometry">
            <mxRectangle width="140" height="30" as="alternateBounds" />
          </mxGeometry>
        </mxCell>
        <mxCell id="xLpc2Q17ecYwa52cMYqb-347" value="" style="shape=tableRow;horizontal=0;startSize=0;swimlaneHead=0;swimlaneBody=0;fillColor=none;collapsible=0;dropTarget=0;points=[[0,0.5],[1,0.5]];portConstraint=eastwest;top=0;left=0;right=0;bottom=0;fontSize=12;verticalAlign=middle;spacing=0;spacingTop=0;" parent="xLpc2Q17ecYwa52cMYqb-340" vertex="1">
          <mxGeometry y="120" width="180" height="30" as="geometry" />
        </mxCell>
        <mxCell id="xLpc2Q17ecYwa52cMYqb-348" value="" style="shape=partialRectangle;connectable=0;fillColor=none;top=0;left=0;bottom=0;right=0;editable=1;overflow=hidden;fontSize=12;verticalAlign=middle;spacing=0;spacingTop=0;" parent="xLpc2Q17ecYwa52cMYqb-347" vertex="1">
          <mxGeometry width="40" height="30" as="geometry">
            <mxRectangle width="40" height="30" as="alternateBounds" />
          </mxGeometry>
        </mxCell>
        <mxCell id="xLpc2Q17ecYwa52cMYqb-349" value="date_work" style="shape=partialRectangle;connectable=0;fillColor=none;top=0;left=0;bottom=0;right=0;align=left;spacingLeft=6;overflow=hidden;fontSize=12;verticalAlign=middle;spacing=0;spacingTop=0;" parent="xLpc2Q17ecYwa52cMYqb-347" vertex="1">
          <mxGeometry x="40" width="140" height="30" as="geometry">
            <mxRectangle width="140" height="30" as="alternateBounds" />
          </mxGeometry>
        </mxCell>
        <mxCell id="xLpc2Q17ecYwa52cMYqb-386" style="shape=tableRow;horizontal=0;startSize=0;swimlaneHead=0;swimlaneBody=0;fillColor=none;collapsible=0;dropTarget=0;points=[[0,0.5],[1,0.5]];portConstraint=eastwest;top=0;left=0;right=0;bottom=0;fontSize=12;verticalAlign=middle;spacing=0;spacingTop=0;" parent="xLpc2Q17ecYwa52cMYqb-340" vertex="1">
          <mxGeometry y="150" width="180" height="30" as="geometry" />
        </mxCell>
        <mxCell id="xLpc2Q17ecYwa52cMYqb-387" style="shape=partialRectangle;connectable=0;fillColor=none;top=0;left=0;bottom=0;right=0;editable=1;overflow=hidden;fontSize=12;verticalAlign=middle;spacing=0;spacingTop=0;" parent="xLpc2Q17ecYwa52cMYqb-386" vertex="1">
          <mxGeometry width="40" height="30" as="geometry">
            <mxRectangle width="40" height="30" as="alternateBounds" />
          </mxGeometry>
        </mxCell>
        <mxCell id="xLpc2Q17ecYwa52cMYqb-388" value="general_expenses" style="shape=partialRectangle;connectable=0;fillColor=none;top=0;left=0;bottom=0;right=0;align=left;spacingLeft=6;overflow=hidden;fontSize=12;verticalAlign=middle;spacing=0;spacingTop=0;" parent="xLpc2Q17ecYwa52cMYqb-386" vertex="1">
          <mxGeometry x="40" width="140" height="30" as="geometry">
            <mxRectangle width="140" height="30" as="alternateBounds" />
          </mxGeometry>
        </mxCell>
        <mxCell id="xLpc2Q17ecYwa52cMYqb-395" value="" style="edgeStyle=entityRelationEdgeStyle;fontSize=12;html=1;endArrow=ERoneToMany;rounded=0;" parent="1" source="xLpc2Q17ecYwa52cMYqb-100" target="xLpc2Q17ecYwa52cMYqb-353" edge="1">
          <mxGeometry width="100" height="100" relative="1" as="geometry">
            <mxPoint x="530" y="620" as="sourcePoint" />
            <mxPoint x="630" y="520" as="targetPoint" />
          </mxGeometry>
        </mxCell>
        <mxCell id="xLpc2Q17ecYwa52cMYqb-396" value="" style="edgeStyle=entityRelationEdgeStyle;fontSize=12;html=1;endArrow=ERoneToMany;rounded=0;" parent="1" source="xLpc2Q17ecYwa52cMYqb-197" target="xLpc2Q17ecYwa52cMYqb-344" edge="1">
          <mxGeometry width="100" height="100" relative="1" as="geometry">
            <mxPoint x="530" y="640" as="sourcePoint" />
            <mxPoint x="630" y="540" as="targetPoint" />
          </mxGeometry>
        </mxCell>
        <mxCell id="xLpc2Q17ecYwa52cMYqb-397" value="nutrients" style="shape=table;startSize=30;container=1;collapsible=1;childLayout=tableLayout;fixedRows=1;rowLines=0;fontStyle=1;align=center;resizeLast=1;fontSize=12;verticalAlign=middle;spacing=0;spacingTop=0;" parent="1" vertex="1">
          <mxGeometry x="470" y="-120" width="180" height="100" as="geometry" />
        </mxCell>
        <mxCell id="xLpc2Q17ecYwa52cMYqb-398" value="" style="shape=tableRow;horizontal=0;startSize=0;swimlaneHead=0;swimlaneBody=0;fillColor=none;collapsible=0;dropTarget=0;points=[[0,0.5],[1,0.5]];portConstraint=eastwest;top=0;left=0;right=0;bottom=1;fontSize=12;verticalAlign=middle;spacing=0;spacingTop=0;" parent="xLpc2Q17ecYwa52cMYqb-397" vertex="1">
          <mxGeometry y="30" width="180" height="30" as="geometry" />
        </mxCell>
        <mxCell id="xLpc2Q17ecYwa52cMYqb-399" value="PK" style="shape=partialRectangle;connectable=0;fillColor=none;top=0;left=0;bottom=0;right=0;fontStyle=1;overflow=hidden;fontSize=12;verticalAlign=middle;spacing=0;spacingTop=0;" parent="xLpc2Q17ecYwa52cMYqb-398" vertex="1">
          <mxGeometry width="40" height="30" as="geometry">
            <mxRectangle width="40" height="30" as="alternateBounds" />
          </mxGeometry>
        </mxCell>
        <mxCell id="xLpc2Q17ecYwa52cMYqb-400" value="id" style="shape=partialRectangle;connectable=0;fillColor=none;top=0;left=0;bottom=0;right=0;align=left;spacingLeft=6;fontStyle=5;overflow=hidden;fontSize=12;verticalAlign=middle;spacing=0;spacingTop=0;" parent="xLpc2Q17ecYwa52cMYqb-398" vertex="1">
          <mxGeometry x="40" width="140" height="30" as="geometry">
            <mxRectangle width="140" height="30" as="alternateBounds" />
          </mxGeometry>
        </mxCell>
        <mxCell id="xLpc2Q17ecYwa52cMYqb-401" value="" style="shape=tableRow;horizontal=0;startSize=0;swimlaneHead=0;swimlaneBody=0;fillColor=none;collapsible=0;dropTarget=0;points=[[0,0.5],[1,0.5]];portConstraint=eastwest;top=0;left=0;right=0;bottom=0;fontSize=12;verticalAlign=middle;spacing=0;spacingTop=0;" parent="xLpc2Q17ecYwa52cMYqb-397" vertex="1">
          <mxGeometry y="60" width="180" height="30" as="geometry" />
        </mxCell>
        <mxCell id="xLpc2Q17ecYwa52cMYqb-402" value="" style="shape=partialRectangle;connectable=0;fillColor=none;top=0;left=0;bottom=0;right=0;editable=1;overflow=hidden;fontSize=12;verticalAlign=middle;spacing=0;spacingTop=0;" parent="xLpc2Q17ecYwa52cMYqb-401" vertex="1">
          <mxGeometry width="40" height="30" as="geometry">
            <mxRectangle width="40" height="30" as="alternateBounds" />
          </mxGeometry>
        </mxCell>
        <mxCell id="xLpc2Q17ecYwa52cMYqb-403" value="description" style="shape=partialRectangle;connectable=0;fillColor=none;top=0;left=0;bottom=0;right=0;align=left;spacingLeft=6;overflow=hidden;fontSize=12;verticalAlign=middle;spacing=0;spacingTop=0;" parent="xLpc2Q17ecYwa52cMYqb-401" vertex="1">
          <mxGeometry x="40" width="140" height="30" as="geometry">
            <mxRectangle width="140" height="30" as="alternateBounds" />
          </mxGeometry>
        </mxCell>
        <mxCell id="xLpc2Q17ecYwa52cMYqb-413" value="fetilizations_nutrients" style="shape=table;startSize=30;container=1;collapsible=1;childLayout=tableLayout;fixedRows=1;rowLines=0;fontStyle=1;align=center;resizeLast=1;fontSize=12;verticalAlign=middle;spacing=0;spacingTop=0;" parent="1" vertex="1">
          <mxGeometry x="230" y="-490" width="180" height="220" as="geometry" />
        </mxCell>
        <mxCell id="xLpc2Q17ecYwa52cMYqb-414" value="" style="shape=tableRow;horizontal=0;startSize=0;swimlaneHead=0;swimlaneBody=0;fillColor=none;collapsible=0;dropTarget=0;points=[[0,0.5],[1,0.5]];portConstraint=eastwest;top=0;left=0;right=0;bottom=0;fontSize=12;verticalAlign=middle;spacing=0;spacingTop=0;" parent="xLpc2Q17ecYwa52cMYqb-413" vertex="1">
          <mxGeometry y="30" width="180" height="30" as="geometry" />
        </mxCell>
        <mxCell id="xLpc2Q17ecYwa52cMYqb-415" value="PK" style="shape=partialRectangle;connectable=0;fillColor=none;top=0;left=0;bottom=0;right=0;fontStyle=1;overflow=hidden;fontSize=12;verticalAlign=middle;spacing=0;spacingTop=0;" parent="xLpc2Q17ecYwa52cMYqb-414" vertex="1">
          <mxGeometry width="40" height="30" as="geometry">
            <mxRectangle width="40" height="30" as="alternateBounds" />
          </mxGeometry>
        </mxCell>
        <mxCell id="xLpc2Q17ecYwa52cMYqb-416" value="id" style="shape=partialRectangle;connectable=0;fillColor=none;top=0;left=0;bottom=0;right=0;align=left;spacingLeft=6;fontStyle=5;overflow=hidden;fontSize=12;verticalAlign=middle;spacing=0;spacingTop=0;" parent="xLpc2Q17ecYwa52cMYqb-414" vertex="1">
          <mxGeometry x="40" width="140" height="30" as="geometry">
            <mxRectangle width="140" height="30" as="alternateBounds" />
          </mxGeometry>
        </mxCell>
        <mxCell id="xLpc2Q17ecYwa52cMYqb-426" style="shape=tableRow;horizontal=0;startSize=0;swimlaneHead=0;swimlaneBody=0;fillColor=none;collapsible=0;dropTarget=0;points=[[0,0.5],[1,0.5]];portConstraint=eastwest;top=0;left=0;right=0;bottom=0;fontSize=12;verticalAlign=middle;spacing=0;spacingTop=0;" parent="xLpc2Q17ecYwa52cMYqb-413" vertex="1">
          <mxGeometry y="60" width="180" height="30" as="geometry" />
        </mxCell>
        <mxCell id="xLpc2Q17ecYwa52cMYqb-427" value="FK" style="shape=partialRectangle;connectable=0;fillColor=none;top=0;left=0;bottom=0;right=0;fontStyle=1;overflow=hidden;fontSize=12;verticalAlign=middle;spacing=0;spacingTop=0;" parent="xLpc2Q17ecYwa52cMYqb-426" vertex="1">
          <mxGeometry width="40" height="30" as="geometry">
            <mxRectangle width="40" height="30" as="alternateBounds" />
          </mxGeometry>
        </mxCell>
        <mxCell id="xLpc2Q17ecYwa52cMYqb-428" value="fertilizattion_plan_id" style="shape=partialRectangle;connectable=0;fillColor=none;top=0;left=0;bottom=0;right=0;align=left;spacingLeft=6;fontStyle=5;overflow=hidden;fontSize=12;verticalAlign=middle;spacing=0;spacingTop=0;" parent="xLpc2Q17ecYwa52cMYqb-426" vertex="1">
          <mxGeometry x="40" width="140" height="30" as="geometry">
            <mxRectangle width="140" height="30" as="alternateBounds" />
          </mxGeometry>
        </mxCell>
        <mxCell id="xLpc2Q17ecYwa52cMYqb-443" style="shape=tableRow;horizontal=0;startSize=0;swimlaneHead=0;swimlaneBody=0;fillColor=none;collapsible=0;dropTarget=0;points=[[0,0.5],[1,0.5]];portConstraint=eastwest;top=0;left=0;right=0;bottom=0;fontSize=12;verticalAlign=middle;spacing=0;spacingTop=0;" parent="xLpc2Q17ecYwa52cMYqb-413" vertex="1">
          <mxGeometry y="90" width="180" height="30" as="geometry" />
        </mxCell>
        <mxCell id="xLpc2Q17ecYwa52cMYqb-444" value="FK" style="shape=partialRectangle;connectable=0;fillColor=none;top=0;left=0;bottom=0;right=0;fontStyle=1;overflow=hidden;fontSize=12;verticalAlign=middle;spacing=0;spacingTop=0;" parent="xLpc2Q17ecYwa52cMYqb-443" vertex="1">
          <mxGeometry width="40" height="30" as="geometry">
            <mxRectangle width="40" height="30" as="alternateBounds" />
          </mxGeometry>
        </mxCell>
        <mxCell id="xLpc2Q17ecYwa52cMYqb-445" value="unit_id" style="shape=partialRectangle;connectable=0;fillColor=none;top=0;left=0;bottom=0;right=0;align=left;spacingLeft=6;fontStyle=5;overflow=hidden;fontSize=12;verticalAlign=middle;spacing=0;spacingTop=0;" parent="xLpc2Q17ecYwa52cMYqb-443" vertex="1">
          <mxGeometry x="40" width="140" height="30" as="geometry">
            <mxRectangle width="140" height="30" as="alternateBounds" />
          </mxGeometry>
        </mxCell>
        <mxCell id="xLpc2Q17ecYwa52cMYqb-417" value="" style="shape=tableRow;horizontal=0;startSize=0;swimlaneHead=0;swimlaneBody=0;fillColor=none;collapsible=0;dropTarget=0;points=[[0,0.5],[1,0.5]];portConstraint=eastwest;top=0;left=0;right=0;bottom=1;fontSize=12;verticalAlign=middle;spacing=0;spacingTop=0;" parent="xLpc2Q17ecYwa52cMYqb-413" vertex="1">
          <mxGeometry y="120" width="180" height="30" as="geometry" />
        </mxCell>
        <mxCell id="xLpc2Q17ecYwa52cMYqb-418" value="FK" style="shape=partialRectangle;connectable=0;fillColor=none;top=0;left=0;bottom=0;right=0;fontStyle=1;overflow=hidden;fontSize=12;verticalAlign=middle;spacing=0;spacingTop=0;" parent="xLpc2Q17ecYwa52cMYqb-417" vertex="1">
          <mxGeometry width="40" height="30" as="geometry">
            <mxRectangle width="40" height="30" as="alternateBounds" />
          </mxGeometry>
        </mxCell>
        <mxCell id="xLpc2Q17ecYwa52cMYqb-419" value="nutrient_id" style="shape=partialRectangle;connectable=0;fillColor=none;top=0;left=0;bottom=0;right=0;align=left;spacingLeft=6;fontStyle=5;overflow=hidden;fontSize=12;verticalAlign=middle;spacing=0;spacingTop=0;" parent="xLpc2Q17ecYwa52cMYqb-417" vertex="1">
          <mxGeometry x="40" width="140" height="30" as="geometry">
            <mxRectangle width="140" height="30" as="alternateBounds" />
          </mxGeometry>
        </mxCell>
        <mxCell id="xLpc2Q17ecYwa52cMYqb-420" value="" style="shape=tableRow;horizontal=0;startSize=0;swimlaneHead=0;swimlaneBody=0;fillColor=none;collapsible=0;dropTarget=0;points=[[0,0.5],[1,0.5]];portConstraint=eastwest;top=0;left=0;right=0;bottom=0;fontSize=12;verticalAlign=middle;spacing=0;spacingTop=0;" parent="xLpc2Q17ecYwa52cMYqb-413" vertex="1">
          <mxGeometry y="150" width="180" height="30" as="geometry" />
        </mxCell>
        <mxCell id="xLpc2Q17ecYwa52cMYqb-421" value="" style="shape=partialRectangle;connectable=0;fillColor=none;top=0;left=0;bottom=0;right=0;editable=1;overflow=hidden;fontSize=12;verticalAlign=middle;spacing=0;spacingTop=0;" parent="xLpc2Q17ecYwa52cMYqb-420" vertex="1">
          <mxGeometry width="40" height="30" as="geometry">
            <mxRectangle width="40" height="30" as="alternateBounds" />
          </mxGeometry>
        </mxCell>
        <mxCell id="xLpc2Q17ecYwa52cMYqb-422" value="percentage" style="shape=partialRectangle;connectable=0;fillColor=none;top=0;left=0;bottom=0;right=0;align=left;spacingLeft=6;overflow=hidden;fontSize=12;verticalAlign=middle;spacing=0;spacingTop=0;" parent="xLpc2Q17ecYwa52cMYqb-420" vertex="1">
          <mxGeometry x="40" width="140" height="30" as="geometry">
            <mxRectangle width="140" height="30" as="alternateBounds" />
          </mxGeometry>
        </mxCell>
        <mxCell id="xLpc2Q17ecYwa52cMYqb-423" value="" style="shape=tableRow;horizontal=0;startSize=0;swimlaneHead=0;swimlaneBody=0;fillColor=none;collapsible=0;dropTarget=0;points=[[0,0.5],[1,0.5]];portConstraint=eastwest;top=0;left=0;right=0;bottom=0;fontSize=12;verticalAlign=middle;spacing=0;spacingTop=0;" parent="xLpc2Q17ecYwa52cMYqb-413" vertex="1">
          <mxGeometry y="180" width="180" height="30" as="geometry" />
        </mxCell>
        <mxCell id="xLpc2Q17ecYwa52cMYqb-424" value="" style="shape=partialRectangle;connectable=0;fillColor=none;top=0;left=0;bottom=0;right=0;editable=1;overflow=hidden;fontSize=12;verticalAlign=middle;spacing=0;spacingTop=0;" parent="xLpc2Q17ecYwa52cMYqb-423" vertex="1">
          <mxGeometry width="40" height="30" as="geometry">
            <mxRectangle width="40" height="30" as="alternateBounds" />
          </mxGeometry>
        </mxCell>
        <mxCell id="xLpc2Q17ecYwa52cMYqb-425" value="lot" style="shape=partialRectangle;connectable=0;fillColor=none;top=0;left=0;bottom=0;right=0;align=left;spacingLeft=6;overflow=hidden;fontSize=12;verticalAlign=middle;spacing=0;spacingTop=0;" parent="xLpc2Q17ecYwa52cMYqb-423" vertex="1">
          <mxGeometry x="40" width="140" height="30" as="geometry">
            <mxRectangle width="140" height="30" as="alternateBounds" />
          </mxGeometry>
        </mxCell>
        <mxCell id="xLpc2Q17ecYwa52cMYqb-429" value="units" style="shape=table;startSize=30;container=1;collapsible=1;childLayout=tableLayout;fixedRows=1;rowLines=0;fontStyle=1;align=center;resizeLast=1;fontSize=12;verticalAlign=middle;spacing=0;spacingTop=0;" parent="1" vertex="1">
          <mxGeometry x="550" y="-330" width="180" height="100" as="geometry" />
        </mxCell>
        <mxCell id="xLpc2Q17ecYwa52cMYqb-430" value="" style="shape=tableRow;horizontal=0;startSize=0;swimlaneHead=0;swimlaneBody=0;fillColor=none;collapsible=0;dropTarget=0;points=[[0,0.5],[1,0.5]];portConstraint=eastwest;top=0;left=0;right=0;bottom=1;fontSize=12;verticalAlign=middle;spacing=0;spacingTop=0;" parent="xLpc2Q17ecYwa52cMYqb-429" vertex="1">
          <mxGeometry y="30" width="180" height="30" as="geometry" />
        </mxCell>
        <mxCell id="xLpc2Q17ecYwa52cMYqb-431" value="PK" style="shape=partialRectangle;connectable=0;fillColor=none;top=0;left=0;bottom=0;right=0;fontStyle=1;overflow=hidden;fontSize=12;verticalAlign=middle;spacing=0;spacingTop=0;" parent="xLpc2Q17ecYwa52cMYqb-430" vertex="1">
          <mxGeometry width="40" height="30" as="geometry">
            <mxRectangle width="40" height="30" as="alternateBounds" />
          </mxGeometry>
        </mxCell>
        <mxCell id="xLpc2Q17ecYwa52cMYqb-432" value="id" style="shape=partialRectangle;connectable=0;fillColor=none;top=0;left=0;bottom=0;right=0;align=left;spacingLeft=6;fontStyle=5;overflow=hidden;fontSize=12;verticalAlign=middle;spacing=0;spacingTop=0;" parent="xLpc2Q17ecYwa52cMYqb-430" vertex="1">
          <mxGeometry x="40" width="140" height="30" as="geometry">
            <mxRectangle width="140" height="30" as="alternateBounds" />
          </mxGeometry>
        </mxCell>
        <mxCell id="xLpc2Q17ecYwa52cMYqb-436" value="" style="shape=tableRow;horizontal=0;startSize=0;swimlaneHead=0;swimlaneBody=0;fillColor=none;collapsible=0;dropTarget=0;points=[[0,0.5],[1,0.5]];portConstraint=eastwest;top=0;left=0;right=0;bottom=0;fontSize=12;verticalAlign=middle;spacing=0;spacingTop=0;" parent="xLpc2Q17ecYwa52cMYqb-429" vertex="1">
          <mxGeometry y="60" width="180" height="30" as="geometry" />
        </mxCell>
        <mxCell id="xLpc2Q17ecYwa52cMYqb-437" value="" style="shape=partialRectangle;connectable=0;fillColor=none;top=0;left=0;bottom=0;right=0;editable=1;overflow=hidden;fontSize=12;verticalAlign=middle;spacing=0;spacingTop=0;" parent="xLpc2Q17ecYwa52cMYqb-436" vertex="1">
          <mxGeometry width="40" height="30" as="geometry">
            <mxRectangle width="40" height="30" as="alternateBounds" />
          </mxGeometry>
        </mxCell>
        <mxCell id="xLpc2Q17ecYwa52cMYqb-438" value="decription" style="shape=partialRectangle;connectable=0;fillColor=none;top=0;left=0;bottom=0;right=0;align=left;spacingLeft=6;overflow=hidden;fontSize=12;verticalAlign=middle;spacing=0;spacingTop=0;" parent="xLpc2Q17ecYwa52cMYqb-436" vertex="1">
          <mxGeometry x="40" width="140" height="30" as="geometry">
            <mxRectangle width="140" height="30" as="alternateBounds" />
          </mxGeometry>
        </mxCell>
        <mxCell id="xLpc2Q17ecYwa52cMYqb-458" value="activities" style="shape=table;startSize=30;container=1;collapsible=1;childLayout=tableLayout;fixedRows=1;rowLines=0;fontStyle=1;align=center;resizeLast=1;fontSize=12;verticalAlign=middle;spacing=0;spacingTop=0;" parent="1" vertex="1">
          <mxGeometry x="250" y="870" width="180" height="160" as="geometry" />
        </mxCell>
        <mxCell id="xLpc2Q17ecYwa52cMYqb-459" value="" style="shape=tableRow;horizontal=0;startSize=0;swimlaneHead=0;swimlaneBody=0;fillColor=none;collapsible=0;dropTarget=0;points=[[0,0.5],[1,0.5]];portConstraint=eastwest;top=0;left=0;right=0;bottom=0;fontSize=12;verticalAlign=middle;spacing=0;spacingTop=0;" parent="xLpc2Q17ecYwa52cMYqb-458" vertex="1">
          <mxGeometry y="30" width="180" height="30" as="geometry" />
        </mxCell>
        <mxCell id="xLpc2Q17ecYwa52cMYqb-460" value="PK" style="shape=partialRectangle;connectable=0;fillColor=none;top=0;left=0;bottom=0;right=0;fontStyle=1;overflow=hidden;fontSize=12;verticalAlign=middle;spacing=0;spacingTop=0;" parent="xLpc2Q17ecYwa52cMYqb-459" vertex="1">
          <mxGeometry width="40" height="30" as="geometry">
            <mxRectangle width="40" height="30" as="alternateBounds" />
          </mxGeometry>
        </mxCell>
        <mxCell id="xLpc2Q17ecYwa52cMYqb-461" value="id" style="shape=partialRectangle;connectable=0;fillColor=none;top=0;left=0;bottom=0;right=0;align=left;spacingLeft=6;fontStyle=5;overflow=hidden;fontSize=12;verticalAlign=middle;spacing=0;spacingTop=0;" parent="xLpc2Q17ecYwa52cMYqb-459" vertex="1">
          <mxGeometry x="40" width="140" height="30" as="geometry">
            <mxRectangle width="140" height="30" as="alternateBounds" />
          </mxGeometry>
        </mxCell>
        <mxCell id="xLpc2Q17ecYwa52cMYqb-471" style="shape=tableRow;horizontal=0;startSize=0;swimlaneHead=0;swimlaneBody=0;fillColor=none;collapsible=0;dropTarget=0;points=[[0,0.5],[1,0.5]];portConstraint=eastwest;top=0;left=0;right=0;bottom=0;fontSize=12;verticalAlign=middle;spacing=0;spacingTop=0;" parent="xLpc2Q17ecYwa52cMYqb-458" vertex="1">
          <mxGeometry y="60" width="180" height="30" as="geometry" />
        </mxCell>
        <mxCell id="xLpc2Q17ecYwa52cMYqb-472" value="FK" style="shape=partialRectangle;connectable=0;fillColor=none;top=0;left=0;bottom=0;right=0;fontStyle=1;overflow=hidden;fontSize=12;verticalAlign=middle;spacing=0;spacingTop=0;" parent="xLpc2Q17ecYwa52cMYqb-471" vertex="1">
          <mxGeometry width="40" height="30" as="geometry">
            <mxRectangle width="40" height="30" as="alternateBounds" />
          </mxGeometry>
        </mxCell>
        <mxCell id="xLpc2Q17ecYwa52cMYqb-473" value="workday_id" style="shape=partialRectangle;connectable=0;fillColor=none;top=0;left=0;bottom=0;right=0;align=left;spacingLeft=6;fontStyle=5;overflow=hidden;fontSize=12;verticalAlign=middle;spacing=0;spacingTop=0;" parent="xLpc2Q17ecYwa52cMYqb-471" vertex="1">
          <mxGeometry x="40" width="140" height="30" as="geometry">
            <mxRectangle width="140" height="30" as="alternateBounds" />
          </mxGeometry>
        </mxCell>
        <mxCell id="xLpc2Q17ecYwa52cMYqb-462" value="" style="shape=tableRow;horizontal=0;startSize=0;swimlaneHead=0;swimlaneBody=0;fillColor=none;collapsible=0;dropTarget=0;points=[[0,0.5],[1,0.5]];portConstraint=eastwest;top=0;left=0;right=0;bottom=1;fontSize=12;verticalAlign=middle;spacing=0;spacingTop=0;" parent="xLpc2Q17ecYwa52cMYqb-458" vertex="1">
          <mxGeometry y="90" width="180" height="30" as="geometry" />
        </mxCell>
        <mxCell id="xLpc2Q17ecYwa52cMYqb-463" value="FK" style="shape=partialRectangle;connectable=0;fillColor=none;top=0;left=0;bottom=0;right=0;fontStyle=1;overflow=hidden;fontSize=12;verticalAlign=middle;spacing=0;spacingTop=0;" parent="xLpc2Q17ecYwa52cMYqb-462" vertex="1">
          <mxGeometry width="40" height="30" as="geometry">
            <mxRectangle width="40" height="30" as="alternateBounds" />
          </mxGeometry>
        </mxCell>
        <mxCell id="xLpc2Q17ecYwa52cMYqb-464" value="type_job_id" style="shape=partialRectangle;connectable=0;fillColor=none;top=0;left=0;bottom=0;right=0;align=left;spacingLeft=6;fontStyle=5;overflow=hidden;fontSize=12;verticalAlign=middle;spacing=0;spacingTop=0;" parent="xLpc2Q17ecYwa52cMYqb-462" vertex="1">
          <mxGeometry x="40" width="140" height="30" as="geometry">
            <mxRectangle width="140" height="30" as="alternateBounds" />
          </mxGeometry>
        </mxCell>
        <mxCell id="xLpc2Q17ecYwa52cMYqb-465" value="" style="shape=tableRow;horizontal=0;startSize=0;swimlaneHead=0;swimlaneBody=0;fillColor=none;collapsible=0;dropTarget=0;points=[[0,0.5],[1,0.5]];portConstraint=eastwest;top=0;left=0;right=0;bottom=0;fontSize=12;verticalAlign=middle;spacing=0;spacingTop=0;" parent="xLpc2Q17ecYwa52cMYqb-458" vertex="1">
          <mxGeometry y="120" width="180" height="30" as="geometry" />
        </mxCell>
        <mxCell id="xLpc2Q17ecYwa52cMYqb-466" value="" style="shape=partialRectangle;connectable=0;fillColor=none;top=0;left=0;bottom=0;right=0;editable=1;overflow=hidden;fontSize=12;verticalAlign=middle;spacing=0;spacingTop=0;" parent="xLpc2Q17ecYwa52cMYqb-465" vertex="1">
          <mxGeometry width="40" height="30" as="geometry">
            <mxRectangle width="40" height="30" as="alternateBounds" />
          </mxGeometry>
        </mxCell>
        <mxCell id="xLpc2Q17ecYwa52cMYqb-467" value="cost" style="shape=partialRectangle;connectable=0;fillColor=none;top=0;left=0;bottom=0;right=0;align=left;spacingLeft=6;overflow=hidden;fontSize=12;verticalAlign=middle;spacing=0;spacingTop=0;" parent="xLpc2Q17ecYwa52cMYqb-465" vertex="1">
          <mxGeometry x="40" width="140" height="30" as="geometry">
            <mxRectangle width="140" height="30" as="alternateBounds" />
          </mxGeometry>
        </mxCell>
        <mxCell id="xLpc2Q17ecYwa52cMYqb-475" value="" style="edgeStyle=entityRelationEdgeStyle;fontSize=12;html=1;endArrow=ERmany;startArrow=ERmany;rounded=0;entryX=0;entryY=0.5;entryDx=0;entryDy=0;" parent="1" source="xLpc2Q17ecYwa52cMYqb-341" target="xLpc2Q17ecYwa52cMYqb-471" edge="1">
          <mxGeometry width="100" height="100" relative="1" as="geometry">
            <mxPoint x="490" y="990" as="sourcePoint" />
            <mxPoint x="590" y="890" as="targetPoint" />
          </mxGeometry>
        </mxCell>
        <mxCell id="xLpc2Q17ecYwa52cMYqb-476" value="" style="edgeStyle=entityRelationEdgeStyle;fontSize=12;html=1;endArrow=ERmany;startArrow=ERmany;rounded=0;" parent="1" source="xLpc2Q17ecYwa52cMYqb-186" target="xLpc2Q17ecYwa52cMYqb-462" edge="1">
          <mxGeometry width="100" height="100" relative="1" as="geometry">
            <mxPoint x="450" y="815" as="sourcePoint" />
            <mxPoint x="550" y="865" as="targetPoint" />
          </mxGeometry>
        </mxCell>
        <mxCell id="xLpc2Q17ecYwa52cMYqb-478" value="" style="edgeStyle=entityRelationEdgeStyle;fontSize=12;html=1;endArrow=ERmany;startArrow=ERmany;rounded=0;" parent="1" source="xLpc2Q17ecYwa52cMYqb-417" target="xLpc2Q17ecYwa52cMYqb-398" edge="1">
          <mxGeometry width="100" height="100" relative="1" as="geometry">
            <mxPoint x="490" y="50" as="sourcePoint" />
            <mxPoint x="590" y="-50" as="targetPoint" />
          </mxGeometry>
        </mxCell>
        <mxCell id="xLpc2Q17ecYwa52cMYqb-479" value="" style="edgeStyle=entityRelationEdgeStyle;fontSize=12;html=1;endArrow=ERmany;startArrow=ERmany;rounded=0;" parent="1" source="xLpc2Q17ecYwa52cMYqb-443" target="xLpc2Q17ecYwa52cMYqb-430" edge="1">
          <mxGeometry width="100" height="100" relative="1" as="geometry">
            <mxPoint x="450" y="-95" as="sourcePoint" />
            <mxPoint x="520" y="-85" as="targetPoint" />
          </mxGeometry>
        </mxCell>
        <mxCell id="MfyLsWGhFaBwBQXPZ9hn-7" value="nutrients_analysis" style="shape=table;startSize=30;container=1;collapsible=1;childLayout=tableLayout;fixedRows=1;rowLines=0;fontStyle=1;align=center;resizeLast=1;fontSize=12;verticalAlign=middle;spacing=0;spacingTop=0;html=1;" vertex="1" parent="1">
          <mxGeometry y="-160" width="180" height="160" as="geometry" />
        </mxCell>
        <mxCell id="MfyLsWGhFaBwBQXPZ9hn-8" value="" style="shape=tableRow;horizontal=0;startSize=0;swimlaneHead=0;swimlaneBody=0;fillColor=none;collapsible=0;dropTarget=0;points=[[0,0.5],[1,0.5]];portConstraint=eastwest;top=0;left=0;right=0;bottom=0;fontSize=12;verticalAlign=middle;spacing=0;spacingTop=0;" vertex="1" parent="MfyLsWGhFaBwBQXPZ9hn-7">
          <mxGeometry y="30" width="180" height="30" as="geometry" />
        </mxCell>
        <mxCell id="MfyLsWGhFaBwBQXPZ9hn-9" value="PK" style="shape=partialRectangle;connectable=0;fillColor=none;top=0;left=0;bottom=0;right=0;fontStyle=1;overflow=hidden;fontSize=12;verticalAlign=middle;spacing=0;spacingTop=0;" vertex="1" parent="MfyLsWGhFaBwBQXPZ9hn-8">
          <mxGeometry width="40" height="30" as="geometry">
            <mxRectangle width="40" height="30" as="alternateBounds" />
          </mxGeometry>
        </mxCell>
        <mxCell id="MfyLsWGhFaBwBQXPZ9hn-10" value="id" style="shape=partialRectangle;connectable=0;fillColor=none;top=0;left=0;bottom=0;right=0;align=left;spacingLeft=6;fontStyle=5;overflow=hidden;fontSize=12;verticalAlign=middle;spacing=0;spacingTop=0;" vertex="1" parent="MfyLsWGhFaBwBQXPZ9hn-8">
          <mxGeometry x="40" width="140" height="30" as="geometry">
            <mxRectangle width="140" height="30" as="alternateBounds" />
          </mxGeometry>
        </mxCell>
        <mxCell id="MfyLsWGhFaBwBQXPZ9hn-11" value="" style="shape=tableRow;horizontal=0;startSize=0;swimlaneHead=0;swimlaneBody=0;fillColor=none;collapsible=0;dropTarget=0;points=[[0,0.5],[1,0.5]];portConstraint=eastwest;top=0;left=0;right=0;bottom=1;fontSize=12;verticalAlign=middle;spacing=0;spacingTop=0;" vertex="1" parent="MfyLsWGhFaBwBQXPZ9hn-7">
          <mxGeometry y="60" width="180" height="30" as="geometry" />
        </mxCell>
        <mxCell id="MfyLsWGhFaBwBQXPZ9hn-12" value="FK" style="shape=partialRectangle;connectable=0;fillColor=none;top=0;left=0;bottom=0;right=0;fontStyle=1;overflow=hidden;fontSize=12;verticalAlign=middle;spacing=0;spacingTop=0;" vertex="1" parent="MfyLsWGhFaBwBQXPZ9hn-11">
          <mxGeometry width="40" height="30" as="geometry">
            <mxRectangle width="40" height="30" as="alternateBounds" />
          </mxGeometry>
        </mxCell>
        <mxCell id="MfyLsWGhFaBwBQXPZ9hn-13" value="orchard_id" style="shape=partialRectangle;connectable=0;fillColor=none;top=0;left=0;bottom=0;right=0;align=left;spacingLeft=6;fontStyle=5;overflow=hidden;fontSize=12;verticalAlign=middle;spacing=0;spacingTop=0;" vertex="1" parent="MfyLsWGhFaBwBQXPZ9hn-11">
          <mxGeometry x="40" width="140" height="30" as="geometry">
            <mxRectangle width="140" height="30" as="alternateBounds" />
          </mxGeometry>
        </mxCell>
        <mxCell id="MfyLsWGhFaBwBQXPZ9hn-14" value="" style="shape=tableRow;horizontal=0;startSize=0;swimlaneHead=0;swimlaneBody=0;fillColor=none;collapsible=0;dropTarget=0;points=[[0,0.5],[1,0.5]];portConstraint=eastwest;top=0;left=0;right=0;bottom=0;fontSize=12;verticalAlign=middle;spacing=0;spacingTop=0;" vertex="1" parent="MfyLsWGhFaBwBQXPZ9hn-7">
          <mxGeometry y="90" width="180" height="30" as="geometry" />
        </mxCell>
        <mxCell id="MfyLsWGhFaBwBQXPZ9hn-15" value="" style="shape=partialRectangle;connectable=0;fillColor=none;top=0;left=0;bottom=0;right=0;editable=1;overflow=hidden;fontSize=12;verticalAlign=middle;spacing=0;spacingTop=0;" vertex="1" parent="MfyLsWGhFaBwBQXPZ9hn-14">
          <mxGeometry width="40" height="30" as="geometry">
            <mxRectangle width="40" height="30" as="alternateBounds" />
          </mxGeometry>
        </mxCell>
        <mxCell id="MfyLsWGhFaBwBQXPZ9hn-16" value="date_sample" style="shape=partialRectangle;connectable=0;fillColor=none;top=0;left=0;bottom=0;right=0;align=left;spacingLeft=6;overflow=hidden;fontSize=12;verticalAlign=middle;spacing=0;spacingTop=0;" vertex="1" parent="MfyLsWGhFaBwBQXPZ9hn-14">
          <mxGeometry x="40" width="140" height="30" as="geometry">
            <mxRectangle width="140" height="30" as="alternateBounds" />
          </mxGeometry>
        </mxCell>
        <mxCell id="MfyLsWGhFaBwBQXPZ9hn-17" style="shape=tableRow;horizontal=0;startSize=0;swimlaneHead=0;swimlaneBody=0;fillColor=none;collapsible=0;dropTarget=0;points=[[0,0.5],[1,0.5]];portConstraint=eastwest;top=0;left=0;right=0;bottom=0;fontSize=12;verticalAlign=middle;spacing=0;spacingTop=0;" vertex="1" parent="MfyLsWGhFaBwBQXPZ9hn-7">
          <mxGeometry y="120" width="180" height="30" as="geometry" />
        </mxCell>
        <mxCell id="MfyLsWGhFaBwBQXPZ9hn-18" style="shape=partialRectangle;connectable=0;fillColor=none;top=0;left=0;bottom=0;right=0;editable=1;overflow=hidden;fontSize=12;verticalAlign=middle;spacing=0;spacingTop=0;" vertex="1" parent="MfyLsWGhFaBwBQXPZ9hn-17">
          <mxGeometry width="40" height="30" as="geometry">
            <mxRectangle width="40" height="30" as="alternateBounds" />
          </mxGeometry>
        </mxCell>
        <mxCell id="MfyLsWGhFaBwBQXPZ9hn-19" value="file" style="shape=partialRectangle;connectable=0;fillColor=none;top=0;left=0;bottom=0;right=0;align=left;spacingLeft=6;overflow=hidden;fontSize=12;verticalAlign=middle;spacing=0;spacingTop=0;" vertex="1" parent="MfyLsWGhFaBwBQXPZ9hn-17">
          <mxGeometry x="40" width="140" height="30" as="geometry">
            <mxRectangle width="140" height="30" as="alternateBounds" />
          </mxGeometry>
        </mxCell>
        <mxCell id="MfyLsWGhFaBwBQXPZ9hn-20" value="" style="edgeStyle=entityRelationEdgeStyle;fontSize=12;html=1;endArrow=ERoneToMany;rounded=0;" edge="1" parent="1" source="xLpc2Q17ecYwa52cMYqb-197" target="MfyLsWGhFaBwBQXPZ9hn-11">
          <mxGeometry width="100" height="100" relative="1" as="geometry">
            <mxPoint x="270" y="315" as="sourcePoint" />
            <mxPoint x="203.96000000000004" y="-126" as="targetPoint" />
          </mxGeometry>
        </mxCell>
        <mxCell id="MfyLsWGhFaBwBQXPZ9hn-21" value="samples_nutrients" style="shape=table;startSize=30;container=1;collapsible=1;childLayout=tableLayout;fixedRows=1;rowLines=0;fontStyle=1;align=center;resizeLast=1;fontSize=12;verticalAlign=middle;spacing=0;spacingTop=0;" vertex="1" parent="1">
          <mxGeometry x="240" y="-210" width="180" height="220" as="geometry" />
        </mxCell>
        <mxCell id="MfyLsWGhFaBwBQXPZ9hn-22" value="" style="shape=tableRow;horizontal=0;startSize=0;swimlaneHead=0;swimlaneBody=0;fillColor=none;collapsible=0;dropTarget=0;points=[[0,0.5],[1,0.5]];portConstraint=eastwest;top=0;left=0;right=0;bottom=0;fontSize=12;verticalAlign=middle;spacing=0;spacingTop=0;" vertex="1" parent="MfyLsWGhFaBwBQXPZ9hn-21">
          <mxGeometry y="30" width="180" height="30" as="geometry" />
        </mxCell>
        <mxCell id="MfyLsWGhFaBwBQXPZ9hn-23" value="PK" style="shape=partialRectangle;connectable=0;fillColor=none;top=0;left=0;bottom=0;right=0;fontStyle=1;overflow=hidden;fontSize=12;verticalAlign=middle;spacing=0;spacingTop=0;" vertex="1" parent="MfyLsWGhFaBwBQXPZ9hn-22">
          <mxGeometry width="40" height="30" as="geometry">
            <mxRectangle width="40" height="30" as="alternateBounds" />
          </mxGeometry>
        </mxCell>
        <mxCell id="MfyLsWGhFaBwBQXPZ9hn-24" value="id" style="shape=partialRectangle;connectable=0;fillColor=none;top=0;left=0;bottom=0;right=0;align=left;spacingLeft=6;fontStyle=5;overflow=hidden;fontSize=12;verticalAlign=middle;spacing=0;spacingTop=0;" vertex="1" parent="MfyLsWGhFaBwBQXPZ9hn-22">
          <mxGeometry x="40" width="140" height="30" as="geometry">
            <mxRectangle width="140" height="30" as="alternateBounds" />
          </mxGeometry>
        </mxCell>
        <mxCell id="MfyLsWGhFaBwBQXPZ9hn-25" style="shape=tableRow;horizontal=0;startSize=0;swimlaneHead=0;swimlaneBody=0;fillColor=none;collapsible=0;dropTarget=0;points=[[0,0.5],[1,0.5]];portConstraint=eastwest;top=0;left=0;right=0;bottom=0;fontSize=12;verticalAlign=middle;spacing=0;spacingTop=0;" vertex="1" parent="MfyLsWGhFaBwBQXPZ9hn-21">
          <mxGeometry y="60" width="180" height="30" as="geometry" />
        </mxCell>
        <mxCell id="MfyLsWGhFaBwBQXPZ9hn-26" value="FK" style="shape=partialRectangle;connectable=0;fillColor=none;top=0;left=0;bottom=0;right=0;fontStyle=1;overflow=hidden;fontSize=12;verticalAlign=middle;spacing=0;spacingTop=0;" vertex="1" parent="MfyLsWGhFaBwBQXPZ9hn-25">
          <mxGeometry width="40" height="30" as="geometry">
            <mxRectangle width="40" height="30" as="alternateBounds" />
          </mxGeometry>
        </mxCell>
        <mxCell id="MfyLsWGhFaBwBQXPZ9hn-27" value="nutrient_analysis_id" style="shape=partialRectangle;connectable=0;fillColor=none;top=0;left=0;bottom=0;right=0;align=left;spacingLeft=6;fontStyle=5;overflow=hidden;fontSize=12;verticalAlign=middle;spacing=0;spacingTop=0;" vertex="1" parent="MfyLsWGhFaBwBQXPZ9hn-25">
          <mxGeometry x="40" width="140" height="30" as="geometry">
            <mxRectangle width="140" height="30" as="alternateBounds" />
          </mxGeometry>
        </mxCell>
        <mxCell id="MfyLsWGhFaBwBQXPZ9hn-28" style="shape=tableRow;horizontal=0;startSize=0;swimlaneHead=0;swimlaneBody=0;fillColor=none;collapsible=0;dropTarget=0;points=[[0,0.5],[1,0.5]];portConstraint=eastwest;top=0;left=0;right=0;bottom=0;fontSize=12;verticalAlign=middle;spacing=0;spacingTop=0;" vertex="1" parent="MfyLsWGhFaBwBQXPZ9hn-21">
          <mxGeometry y="90" width="180" height="30" as="geometry" />
        </mxCell>
        <mxCell id="MfyLsWGhFaBwBQXPZ9hn-29" value="FK" style="shape=partialRectangle;connectable=0;fillColor=none;top=0;left=0;bottom=0;right=0;fontStyle=1;overflow=hidden;fontSize=12;verticalAlign=middle;spacing=0;spacingTop=0;" vertex="1" parent="MfyLsWGhFaBwBQXPZ9hn-28">
          <mxGeometry width="40" height="30" as="geometry">
            <mxRectangle width="40" height="30" as="alternateBounds" />
          </mxGeometry>
        </mxCell>
        <mxCell id="MfyLsWGhFaBwBQXPZ9hn-30" value="unit_id" style="shape=partialRectangle;connectable=0;fillColor=none;top=0;left=0;bottom=0;right=0;align=left;spacingLeft=6;fontStyle=5;overflow=hidden;fontSize=12;verticalAlign=middle;spacing=0;spacingTop=0;" vertex="1" parent="MfyLsWGhFaBwBQXPZ9hn-28">
          <mxGeometry x="40" width="140" height="30" as="geometry">
            <mxRectangle width="140" height="30" as="alternateBounds" />
          </mxGeometry>
        </mxCell>
        <mxCell id="MfyLsWGhFaBwBQXPZ9hn-31" value="" style="shape=tableRow;horizontal=0;startSize=0;swimlaneHead=0;swimlaneBody=0;fillColor=none;collapsible=0;dropTarget=0;points=[[0,0.5],[1,0.5]];portConstraint=eastwest;top=0;left=0;right=0;bottom=1;fontSize=12;verticalAlign=middle;spacing=0;spacingTop=0;" vertex="1" parent="MfyLsWGhFaBwBQXPZ9hn-21">
          <mxGeometry y="120" width="180" height="30" as="geometry" />
        </mxCell>
        <mxCell id="MfyLsWGhFaBwBQXPZ9hn-32" value="FK" style="shape=partialRectangle;connectable=0;fillColor=none;top=0;left=0;bottom=0;right=0;fontStyle=1;overflow=hidden;fontSize=12;verticalAlign=middle;spacing=0;spacingTop=0;" vertex="1" parent="MfyLsWGhFaBwBQXPZ9hn-31">
          <mxGeometry width="40" height="30" as="geometry">
            <mxRectangle width="40" height="30" as="alternateBounds" />
          </mxGeometry>
        </mxCell>
        <mxCell id="MfyLsWGhFaBwBQXPZ9hn-33" value="nutrient_id" style="shape=partialRectangle;connectable=0;fillColor=none;top=0;left=0;bottom=0;right=0;align=left;spacingLeft=6;fontStyle=5;overflow=hidden;fontSize=12;verticalAlign=middle;spacing=0;spacingTop=0;" vertex="1" parent="MfyLsWGhFaBwBQXPZ9hn-31">
          <mxGeometry x="40" width="140" height="30" as="geometry">
            <mxRectangle width="140" height="30" as="alternateBounds" />
          </mxGeometry>
        </mxCell>
        <mxCell id="MfyLsWGhFaBwBQXPZ9hn-34" value="" style="shape=tableRow;horizontal=0;startSize=0;swimlaneHead=0;swimlaneBody=0;fillColor=none;collapsible=0;dropTarget=0;points=[[0,0.5],[1,0.5]];portConstraint=eastwest;top=0;left=0;right=0;bottom=0;fontSize=12;verticalAlign=middle;spacing=0;spacingTop=0;" vertex="1" parent="MfyLsWGhFaBwBQXPZ9hn-21">
          <mxGeometry y="150" width="180" height="30" as="geometry" />
        </mxCell>
        <mxCell id="MfyLsWGhFaBwBQXPZ9hn-35" value="" style="shape=partialRectangle;connectable=0;fillColor=none;top=0;left=0;bottom=0;right=0;editable=1;overflow=hidden;fontSize=12;verticalAlign=middle;spacing=0;spacingTop=0;" vertex="1" parent="MfyLsWGhFaBwBQXPZ9hn-34">
          <mxGeometry width="40" height="30" as="geometry">
            <mxRectangle width="40" height="30" as="alternateBounds" />
          </mxGeometry>
        </mxCell>
        <mxCell id="MfyLsWGhFaBwBQXPZ9hn-36" value="percentage" style="shape=partialRectangle;connectable=0;fillColor=none;top=0;left=0;bottom=0;right=0;align=left;spacingLeft=6;overflow=hidden;fontSize=12;verticalAlign=middle;spacing=0;spacingTop=0;" vertex="1" parent="MfyLsWGhFaBwBQXPZ9hn-34">
          <mxGeometry x="40" width="140" height="30" as="geometry">
            <mxRectangle width="140" height="30" as="alternateBounds" />
          </mxGeometry>
        </mxCell>
        <mxCell id="MfyLsWGhFaBwBQXPZ9hn-37" value="" style="shape=tableRow;horizontal=0;startSize=0;swimlaneHead=0;swimlaneBody=0;fillColor=none;collapsible=0;dropTarget=0;points=[[0,0.5],[1,0.5]];portConstraint=eastwest;top=0;left=0;right=0;bottom=0;fontSize=12;verticalAlign=middle;spacing=0;spacingTop=0;" vertex="1" parent="MfyLsWGhFaBwBQXPZ9hn-21">
          <mxGeometry y="180" width="180" height="30" as="geometry" />
        </mxCell>
        <mxCell id="MfyLsWGhFaBwBQXPZ9hn-38" value="" style="shape=partialRectangle;connectable=0;fillColor=none;top=0;left=0;bottom=0;right=0;editable=1;overflow=hidden;fontSize=12;verticalAlign=middle;spacing=0;spacingTop=0;" vertex="1" parent="MfyLsWGhFaBwBQXPZ9hn-37">
          <mxGeometry width="40" height="30" as="geometry">
            <mxRectangle width="40" height="30" as="alternateBounds" />
          </mxGeometry>
        </mxCell>
        <mxCell id="MfyLsWGhFaBwBQXPZ9hn-39" value="lot" style="shape=partialRectangle;connectable=0;fillColor=none;top=0;left=0;bottom=0;right=0;align=left;spacingLeft=6;overflow=hidden;fontSize=12;verticalAlign=middle;spacing=0;spacingTop=0;" vertex="1" parent="MfyLsWGhFaBwBQXPZ9hn-37">
          <mxGeometry x="40" width="140" height="30" as="geometry">
            <mxRectangle width="140" height="30" as="alternateBounds" />
          </mxGeometry>
        </mxCell>
        <mxCell id="MfyLsWGhFaBwBQXPZ9hn-40" value="" style="edgeStyle=entityRelationEdgeStyle;fontSize=12;html=1;endArrow=ERmany;startArrow=ERmany;rounded=0;" edge="1" parent="1" source="xLpc2Q17ecYwa52cMYqb-274" target="xLpc2Q17ecYwa52cMYqb-426">
          <mxGeometry width="100" height="100" relative="1" as="geometry">
            <mxPoint x="420" y="-375" as="sourcePoint" />
            <mxPoint x="530" y="-235" as="targetPoint" />
          </mxGeometry>
        </mxCell>
        <mxCell id="MfyLsWGhFaBwBQXPZ9hn-41" value="" style="edgeStyle=entityRelationEdgeStyle;fontSize=12;html=1;endArrow=ERmany;startArrow=ERmany;rounded=0;" edge="1" parent="1" source="MfyLsWGhFaBwBQXPZ9hn-25" target="MfyLsWGhFaBwBQXPZ9hn-8">
          <mxGeometry width="100" height="100" relative="1" as="geometry">
            <mxPoint x="430" y="-365" as="sourcePoint" />
            <mxPoint x="540" y="-225" as="targetPoint" />
          </mxGeometry>
        </mxCell>
        <mxCell id="MfyLsWGhFaBwBQXPZ9hn-42" value="" style="edgeStyle=entityRelationEdgeStyle;fontSize=12;html=1;endArrow=ERmany;startArrow=ERmany;rounded=0;" edge="1" parent="1" source="MfyLsWGhFaBwBQXPZ9hn-28" target="xLpc2Q17ecYwa52cMYqb-430">
          <mxGeometry width="100" height="100" relative="1" as="geometry">
            <mxPoint x="440" y="-355" as="sourcePoint" />
            <mxPoint x="550" y="-215" as="targetPoint" />
          </mxGeometry>
        </mxCell>
        <mxCell id="MfyLsWGhFaBwBQXPZ9hn-43" value="" style="edgeStyle=entityRelationEdgeStyle;fontSize=12;html=1;endArrow=ERmany;startArrow=ERmany;rounded=0;" edge="1" parent="1" source="MfyLsWGhFaBwBQXPZ9hn-31" target="xLpc2Q17ecYwa52cMYqb-398">
          <mxGeometry width="100" height="100" relative="1" as="geometry">
            <mxPoint x="450" y="-345" as="sourcePoint" />
            <mxPoint x="560" y="-205" as="targetPoint" />
          </mxGeometry>
        </mxCell>
        <mxCell id="MfyLsWGhFaBwBQXPZ9hn-44" value="type_photographs" style="shape=table;startSize=30;container=1;collapsible=1;childLayout=tableLayout;fixedRows=1;rowLines=0;fontStyle=1;align=center;resizeLast=1;fontSize=12;verticalAlign=middle;spacing=0;spacingTop=0;" vertex="1" parent="1">
          <mxGeometry x="640" y="40" width="180" height="100" as="geometry" />
        </mxCell>
        <mxCell id="MfyLsWGhFaBwBQXPZ9hn-45" value="" style="shape=tableRow;horizontal=0;startSize=0;swimlaneHead=0;swimlaneBody=0;fillColor=none;collapsible=0;dropTarget=0;points=[[0,0.5],[1,0.5]];portConstraint=eastwest;top=0;left=0;right=0;bottom=1;fontSize=12;verticalAlign=middle;spacing=0;spacingTop=0;" vertex="1" parent="MfyLsWGhFaBwBQXPZ9hn-44">
          <mxGeometry y="30" width="180" height="30" as="geometry" />
        </mxCell>
        <mxCell id="MfyLsWGhFaBwBQXPZ9hn-46" value="PK" style="shape=partialRectangle;connectable=0;fillColor=none;top=0;left=0;bottom=0;right=0;fontStyle=1;overflow=hidden;fontSize=12;verticalAlign=middle;spacing=0;spacingTop=0;" vertex="1" parent="MfyLsWGhFaBwBQXPZ9hn-45">
          <mxGeometry width="40" height="30" as="geometry">
            <mxRectangle width="40" height="30" as="alternateBounds" />
          </mxGeometry>
        </mxCell>
        <mxCell id="MfyLsWGhFaBwBQXPZ9hn-47" value="id" style="shape=partialRectangle;connectable=0;fillColor=none;top=0;left=0;bottom=0;right=0;align=left;spacingLeft=6;fontStyle=5;overflow=hidden;fontSize=12;verticalAlign=middle;spacing=0;spacingTop=0;" vertex="1" parent="MfyLsWGhFaBwBQXPZ9hn-45">
          <mxGeometry x="40" width="140" height="30" as="geometry">
            <mxRectangle width="140" height="30" as="alternateBounds" />
          </mxGeometry>
        </mxCell>
        <mxCell id="MfyLsWGhFaBwBQXPZ9hn-48" value="" style="shape=tableRow;horizontal=0;startSize=0;swimlaneHead=0;swimlaneBody=0;fillColor=none;collapsible=0;dropTarget=0;points=[[0,0.5],[1,0.5]];portConstraint=eastwest;top=0;left=0;right=0;bottom=0;fontSize=12;verticalAlign=middle;spacing=0;spacingTop=0;" vertex="1" parent="MfyLsWGhFaBwBQXPZ9hn-44">
          <mxGeometry y="60" width="180" height="30" as="geometry" />
        </mxCell>
        <mxCell id="MfyLsWGhFaBwBQXPZ9hn-49" value="" style="shape=partialRectangle;connectable=0;fillColor=none;top=0;left=0;bottom=0;right=0;editable=1;overflow=hidden;fontSize=12;verticalAlign=middle;spacing=0;spacingTop=0;" vertex="1" parent="MfyLsWGhFaBwBQXPZ9hn-48">
          <mxGeometry width="40" height="30" as="geometry">
            <mxRectangle width="40" height="30" as="alternateBounds" />
          </mxGeometry>
        </mxCell>
        <mxCell id="MfyLsWGhFaBwBQXPZ9hn-50" value="type_photograph" style="shape=partialRectangle;connectable=0;fillColor=none;top=0;left=0;bottom=0;right=0;align=left;spacingLeft=6;overflow=hidden;fontSize=12;verticalAlign=middle;spacing=0;spacingTop=0;" vertex="1" parent="MfyLsWGhFaBwBQXPZ9hn-48">
          <mxGeometry x="40" width="140" height="30" as="geometry">
            <mxRectangle width="140" height="30" as="alternateBounds" />
          </mxGeometry>
        </mxCell>
        <mxCell id="MfyLsWGhFaBwBQXPZ9hn-54" value="photographs" style="shape=table;startSize=30;container=1;collapsible=1;childLayout=tableLayout;fixedRows=1;rowLines=0;fontStyle=1;align=center;resizeLast=1;fontSize=12;verticalAlign=middle;spacing=0;spacingTop=0;" vertex="1" parent="1">
          <mxGeometry x="270" y="40" width="180" height="190" as="geometry" />
        </mxCell>
        <mxCell id="MfyLsWGhFaBwBQXPZ9hn-55" value="" style="shape=tableRow;horizontal=0;startSize=0;swimlaneHead=0;swimlaneBody=0;fillColor=none;collapsible=0;dropTarget=0;points=[[0,0.5],[1,0.5]];portConstraint=eastwest;top=0;left=0;right=0;bottom=0;fontSize=12;verticalAlign=middle;spacing=0;spacingTop=0;" vertex="1" parent="MfyLsWGhFaBwBQXPZ9hn-54">
          <mxGeometry y="30" width="180" height="30" as="geometry" />
        </mxCell>
        <mxCell id="MfyLsWGhFaBwBQXPZ9hn-56" value="PK" style="shape=partialRectangle;connectable=0;fillColor=none;top=0;left=0;bottom=0;right=0;fontStyle=1;overflow=hidden;fontSize=12;verticalAlign=middle;spacing=0;spacingTop=0;" vertex="1" parent="MfyLsWGhFaBwBQXPZ9hn-55">
          <mxGeometry width="40" height="30" as="geometry">
            <mxRectangle width="40" height="30" as="alternateBounds" />
          </mxGeometry>
        </mxCell>
        <mxCell id="MfyLsWGhFaBwBQXPZ9hn-57" value="id" style="shape=partialRectangle;connectable=0;fillColor=none;top=0;left=0;bottom=0;right=0;align=left;spacingLeft=6;fontStyle=5;overflow=hidden;fontSize=12;verticalAlign=middle;spacing=0;spacingTop=0;" vertex="1" parent="MfyLsWGhFaBwBQXPZ9hn-55">
          <mxGeometry x="40" width="140" height="30" as="geometry">
            <mxRectangle width="140" height="30" as="alternateBounds" />
          </mxGeometry>
        </mxCell>
        <mxCell id="MfyLsWGhFaBwBQXPZ9hn-70" style="shape=tableRow;horizontal=0;startSize=0;swimlaneHead=0;swimlaneBody=0;fillColor=none;collapsible=0;dropTarget=0;points=[[0,0.5],[1,0.5]];portConstraint=eastwest;top=0;left=0;right=0;bottom=0;fontSize=12;verticalAlign=middle;spacing=0;spacingTop=0;" vertex="1" parent="MfyLsWGhFaBwBQXPZ9hn-54">
          <mxGeometry y="60" width="180" height="30" as="geometry" />
        </mxCell>
        <mxCell id="MfyLsWGhFaBwBQXPZ9hn-71" value="FK" style="shape=partialRectangle;connectable=0;fillColor=none;top=0;left=0;bottom=0;right=0;fontStyle=1;overflow=hidden;fontSize=12;verticalAlign=middle;spacing=0;spacingTop=0;" vertex="1" parent="MfyLsWGhFaBwBQXPZ9hn-70">
          <mxGeometry width="40" height="30" as="geometry">
            <mxRectangle width="40" height="30" as="alternateBounds" />
          </mxGeometry>
        </mxCell>
        <mxCell id="MfyLsWGhFaBwBQXPZ9hn-72" value="orchard_id" style="shape=partialRectangle;connectable=0;fillColor=none;top=0;left=0;bottom=0;right=0;align=left;spacingLeft=6;fontStyle=5;overflow=hidden;fontSize=12;verticalAlign=middle;spacing=0;spacingTop=0;" vertex="1" parent="MfyLsWGhFaBwBQXPZ9hn-70">
          <mxGeometry x="40" width="140" height="30" as="geometry">
            <mxRectangle width="140" height="30" as="alternateBounds" />
          </mxGeometry>
        </mxCell>
        <mxCell id="MfyLsWGhFaBwBQXPZ9hn-58" value="" style="shape=tableRow;horizontal=0;startSize=0;swimlaneHead=0;swimlaneBody=0;fillColor=none;collapsible=0;dropTarget=0;points=[[0,0.5],[1,0.5]];portConstraint=eastwest;top=0;left=0;right=0;bottom=1;fontSize=12;verticalAlign=middle;spacing=0;spacingTop=0;" vertex="1" parent="MfyLsWGhFaBwBQXPZ9hn-54">
          <mxGeometry y="90" width="180" height="30" as="geometry" />
        </mxCell>
        <mxCell id="MfyLsWGhFaBwBQXPZ9hn-59" value="FK" style="shape=partialRectangle;connectable=0;fillColor=none;top=0;left=0;bottom=0;right=0;fontStyle=1;overflow=hidden;fontSize=12;verticalAlign=middle;spacing=0;spacingTop=0;" vertex="1" parent="MfyLsWGhFaBwBQXPZ9hn-58">
          <mxGeometry width="40" height="30" as="geometry">
            <mxRectangle width="40" height="30" as="alternateBounds" />
          </mxGeometry>
        </mxCell>
        <mxCell id="MfyLsWGhFaBwBQXPZ9hn-60" value="type_photopgraph_id" style="shape=partialRectangle;connectable=0;fillColor=none;top=0;left=0;bottom=0;right=0;align=left;spacingLeft=6;fontStyle=5;overflow=hidden;fontSize=12;verticalAlign=middle;spacing=0;spacingTop=0;" vertex="1" parent="MfyLsWGhFaBwBQXPZ9hn-58">
          <mxGeometry x="40" width="140" height="30" as="geometry">
            <mxRectangle width="140" height="30" as="alternateBounds" />
          </mxGeometry>
        </mxCell>
        <mxCell id="MfyLsWGhFaBwBQXPZ9hn-61" value="" style="shape=tableRow;horizontal=0;startSize=0;swimlaneHead=0;swimlaneBody=0;fillColor=none;collapsible=0;dropTarget=0;points=[[0,0.5],[1,0.5]];portConstraint=eastwest;top=0;left=0;right=0;bottom=0;fontSize=12;verticalAlign=middle;spacing=0;spacingTop=0;" vertex="1" parent="MfyLsWGhFaBwBQXPZ9hn-54">
          <mxGeometry y="120" width="180" height="30" as="geometry" />
        </mxCell>
        <mxCell id="MfyLsWGhFaBwBQXPZ9hn-62" value="" style="shape=partialRectangle;connectable=0;fillColor=none;top=0;left=0;bottom=0;right=0;editable=1;overflow=hidden;fontSize=12;verticalAlign=middle;spacing=0;spacingTop=0;" vertex="1" parent="MfyLsWGhFaBwBQXPZ9hn-61">
          <mxGeometry width="40" height="30" as="geometry">
            <mxRectangle width="40" height="30" as="alternateBounds" />
          </mxGeometry>
        </mxCell>
        <mxCell id="MfyLsWGhFaBwBQXPZ9hn-63" value="file" style="shape=partialRectangle;connectable=0;fillColor=none;top=0;left=0;bottom=0;right=0;align=left;spacingLeft=6;overflow=hidden;fontSize=12;verticalAlign=middle;spacing=0;spacingTop=0;" vertex="1" parent="MfyLsWGhFaBwBQXPZ9hn-61">
          <mxGeometry x="40" width="140" height="30" as="geometry">
            <mxRectangle width="140" height="30" as="alternateBounds" />
          </mxGeometry>
        </mxCell>
        <mxCell id="MfyLsWGhFaBwBQXPZ9hn-64" value="" style="shape=tableRow;horizontal=0;startSize=0;swimlaneHead=0;swimlaneBody=0;fillColor=none;collapsible=0;dropTarget=0;points=[[0,0.5],[1,0.5]];portConstraint=eastwest;top=0;left=0;right=0;bottom=0;fontSize=12;verticalAlign=middle;spacing=0;spacingTop=0;" vertex="1" parent="MfyLsWGhFaBwBQXPZ9hn-54">
          <mxGeometry y="150" width="180" height="30" as="geometry" />
        </mxCell>
        <mxCell id="MfyLsWGhFaBwBQXPZ9hn-65" value="" style="shape=partialRectangle;connectable=0;fillColor=none;top=0;left=0;bottom=0;right=0;editable=1;overflow=hidden;fontSize=12;verticalAlign=middle;spacing=0;spacingTop=0;" vertex="1" parent="MfyLsWGhFaBwBQXPZ9hn-64">
          <mxGeometry width="40" height="30" as="geometry">
            <mxRectangle width="40" height="30" as="alternateBounds" />
          </mxGeometry>
        </mxCell>
        <mxCell id="MfyLsWGhFaBwBQXPZ9hn-66" value="date" style="shape=partialRectangle;connectable=0;fillColor=none;top=0;left=0;bottom=0;right=0;align=left;spacingLeft=6;overflow=hidden;fontSize=12;verticalAlign=middle;spacing=0;spacingTop=0;" vertex="1" parent="MfyLsWGhFaBwBQXPZ9hn-64">
          <mxGeometry x="40" width="140" height="30" as="geometry">
            <mxRectangle width="140" height="30" as="alternateBounds" />
          </mxGeometry>
        </mxCell>
        <mxCell id="MfyLsWGhFaBwBQXPZ9hn-73" value="" style="edgeStyle=entityRelationEdgeStyle;fontSize=12;html=1;endArrow=ERoneToMany;rounded=0;verticalAlign=middle;spacing=0;spacingTop=0;" edge="1" parent="1" source="xLpc2Q17ecYwa52cMYqb-197" target="MfyLsWGhFaBwBQXPZ9hn-70">
          <mxGeometry width="100" height="100" relative="1" as="geometry">
            <mxPoint x="560" y="425" as="sourcePoint" />
            <mxPoint x="450" y="435" as="targetPoint" />
          </mxGeometry>
        </mxCell>
        <mxCell id="MfyLsWGhFaBwBQXPZ9hn-74" value="" style="edgeStyle=entityRelationEdgeStyle;fontSize=12;html=1;endArrow=ERmany;startArrow=ERmany;rounded=0;" edge="1" parent="1" source="MfyLsWGhFaBwBQXPZ9hn-58" target="MfyLsWGhFaBwBQXPZ9hn-45">
          <mxGeometry width="100" height="100" relative="1" as="geometry">
            <mxPoint x="700" y="600" as="sourcePoint" />
            <mxPoint x="840" y="700" as="targetPoint" />
          </mxGeometry>
        </mxCell>
        <mxCell id="MfyLsWGhFaBwBQXPZ9hn-81" value="phenophases" style="shape=table;startSize=30;container=1;collapsible=1;childLayout=tableLayout;fixedRows=1;rowLines=0;fontStyle=1;align=center;resizeLast=1;fontSize=12;verticalAlign=middle;spacing=0;spacingTop=0;" vertex="1" parent="1">
          <mxGeometry x="680" y="970" width="180" height="100" as="geometry" />
        </mxCell>
        <mxCell id="MfyLsWGhFaBwBQXPZ9hn-82" value="" style="shape=tableRow;horizontal=0;startSize=0;swimlaneHead=0;swimlaneBody=0;fillColor=none;collapsible=0;dropTarget=0;points=[[0,0.5],[1,0.5]];portConstraint=eastwest;top=0;left=0;right=0;bottom=1;fontSize=12;verticalAlign=middle;spacing=0;spacingTop=0;" vertex="1" parent="MfyLsWGhFaBwBQXPZ9hn-81">
          <mxGeometry y="30" width="180" height="30" as="geometry" />
        </mxCell>
        <mxCell id="MfyLsWGhFaBwBQXPZ9hn-83" value="PK" style="shape=partialRectangle;connectable=0;fillColor=none;top=0;left=0;bottom=0;right=0;fontStyle=1;overflow=hidden;fontSize=12;verticalAlign=middle;spacing=0;spacingTop=0;" vertex="1" parent="MfyLsWGhFaBwBQXPZ9hn-82">
          <mxGeometry width="40" height="30" as="geometry">
            <mxRectangle width="40" height="30" as="alternateBounds" />
          </mxGeometry>
        </mxCell>
        <mxCell id="MfyLsWGhFaBwBQXPZ9hn-84" value="id" style="shape=partialRectangle;connectable=0;fillColor=none;top=0;left=0;bottom=0;right=0;align=left;spacingLeft=6;fontStyle=5;overflow=hidden;fontSize=12;verticalAlign=middle;spacing=0;spacingTop=0;" vertex="1" parent="MfyLsWGhFaBwBQXPZ9hn-82">
          <mxGeometry x="40" width="140" height="30" as="geometry">
            <mxRectangle width="140" height="30" as="alternateBounds" />
          </mxGeometry>
        </mxCell>
        <mxCell id="MfyLsWGhFaBwBQXPZ9hn-85" value="" style="shape=tableRow;horizontal=0;startSize=0;swimlaneHead=0;swimlaneBody=0;fillColor=none;collapsible=0;dropTarget=0;points=[[0,0.5],[1,0.5]];portConstraint=eastwest;top=0;left=0;right=0;bottom=0;fontSize=12;verticalAlign=middle;spacing=0;spacingTop=0;" vertex="1" parent="MfyLsWGhFaBwBQXPZ9hn-81">
          <mxGeometry y="60" width="180" height="30" as="geometry" />
        </mxCell>
        <mxCell id="MfyLsWGhFaBwBQXPZ9hn-86" value="" style="shape=partialRectangle;connectable=0;fillColor=none;top=0;left=0;bottom=0;right=0;editable=1;overflow=hidden;fontSize=12;verticalAlign=middle;spacing=0;spacingTop=0;" vertex="1" parent="MfyLsWGhFaBwBQXPZ9hn-85">
          <mxGeometry width="40" height="30" as="geometry">
            <mxRectangle width="40" height="30" as="alternateBounds" />
          </mxGeometry>
        </mxCell>
        <mxCell id="MfyLsWGhFaBwBQXPZ9hn-87" value="phenofhase" style="shape=partialRectangle;connectable=0;fillColor=none;top=0;left=0;bottom=0;right=0;align=left;spacingLeft=6;overflow=hidden;fontSize=12;verticalAlign=middle;spacing=0;spacingTop=0;" vertex="1" parent="MfyLsWGhFaBwBQXPZ9hn-85">
          <mxGeometry x="40" width="140" height="30" as="geometry">
            <mxRectangle width="140" height="30" as="alternateBounds" />
          </mxGeometry>
        </mxCell>
        <mxCell id="MfyLsWGhFaBwBQXPZ9hn-91" value="registrations_phenophases" style="shape=table;startSize=30;container=1;collapsible=1;childLayout=tableLayout;fixedRows=1;rowLines=0;fontStyle=1;align=center;resizeLast=1;fontSize=12;verticalAlign=middle;spacing=0;spacingTop=0;" vertex="1" parent="1">
          <mxGeometry x="550" y="680" width="180" height="190" as="geometry" />
        </mxCell>
        <mxCell id="MfyLsWGhFaBwBQXPZ9hn-92" value="" style="shape=tableRow;horizontal=0;startSize=0;swimlaneHead=0;swimlaneBody=0;fillColor=none;collapsible=0;dropTarget=0;points=[[0,0.5],[1,0.5]];portConstraint=eastwest;top=0;left=0;right=0;bottom=0;fontSize=12;verticalAlign=middle;spacing=0;spacingTop=0;" vertex="1" parent="MfyLsWGhFaBwBQXPZ9hn-91">
          <mxGeometry y="30" width="180" height="30" as="geometry" />
        </mxCell>
        <mxCell id="MfyLsWGhFaBwBQXPZ9hn-93" value="PK" style="shape=partialRectangle;connectable=0;fillColor=none;top=0;left=0;bottom=0;right=0;fontStyle=1;overflow=hidden;fontSize=12;verticalAlign=middle;spacing=0;spacingTop=0;" vertex="1" parent="MfyLsWGhFaBwBQXPZ9hn-92">
          <mxGeometry width="40" height="30" as="geometry">
            <mxRectangle width="40" height="30" as="alternateBounds" />
          </mxGeometry>
        </mxCell>
        <mxCell id="MfyLsWGhFaBwBQXPZ9hn-94" value="id" style="shape=partialRectangle;connectable=0;fillColor=none;top=0;left=0;bottom=0;right=0;align=left;spacingLeft=6;fontStyle=5;overflow=hidden;fontSize=12;verticalAlign=middle;spacing=0;spacingTop=0;" vertex="1" parent="MfyLsWGhFaBwBQXPZ9hn-92">
          <mxGeometry x="40" width="140" height="30" as="geometry">
            <mxRectangle width="140" height="30" as="alternateBounds" />
          </mxGeometry>
        </mxCell>
        <mxCell id="MfyLsWGhFaBwBQXPZ9hn-95" style="shape=tableRow;horizontal=0;startSize=0;swimlaneHead=0;swimlaneBody=0;fillColor=none;collapsible=0;dropTarget=0;points=[[0,0.5],[1,0.5]];portConstraint=eastwest;top=0;left=0;right=0;bottom=0;fontSize=12;verticalAlign=middle;spacing=0;spacingTop=0;" vertex="1" parent="MfyLsWGhFaBwBQXPZ9hn-91">
          <mxGeometry y="60" width="180" height="30" as="geometry" />
        </mxCell>
        <mxCell id="MfyLsWGhFaBwBQXPZ9hn-96" value="FK" style="shape=partialRectangle;connectable=0;fillColor=none;top=0;left=0;bottom=0;right=0;fontStyle=1;overflow=hidden;fontSize=12;verticalAlign=middle;spacing=0;spacingTop=0;" vertex="1" parent="MfyLsWGhFaBwBQXPZ9hn-95">
          <mxGeometry width="40" height="30" as="geometry">
            <mxRectangle width="40" height="30" as="alternateBounds" />
          </mxGeometry>
        </mxCell>
        <mxCell id="MfyLsWGhFaBwBQXPZ9hn-97" value="phenophase_id" style="shape=partialRectangle;connectable=0;fillColor=none;top=0;left=0;bottom=0;right=0;align=left;spacingLeft=6;fontStyle=5;overflow=hidden;fontSize=12;verticalAlign=middle;spacing=0;spacingTop=0;" vertex="1" parent="MfyLsWGhFaBwBQXPZ9hn-95">
          <mxGeometry x="40" width="140" height="30" as="geometry">
            <mxRectangle width="140" height="30" as="alternateBounds" />
          </mxGeometry>
        </mxCell>
        <mxCell id="MfyLsWGhFaBwBQXPZ9hn-98" value="" style="shape=tableRow;horizontal=0;startSize=0;swimlaneHead=0;swimlaneBody=0;fillColor=none;collapsible=0;dropTarget=0;points=[[0,0.5],[1,0.5]];portConstraint=eastwest;top=0;left=0;right=0;bottom=1;fontSize=12;verticalAlign=middle;spacing=0;spacingTop=0;" vertex="1" parent="MfyLsWGhFaBwBQXPZ9hn-91">
          <mxGeometry y="90" width="180" height="30" as="geometry" />
        </mxCell>
        <mxCell id="MfyLsWGhFaBwBQXPZ9hn-99" value="FK" style="shape=partialRectangle;connectable=0;fillColor=none;top=0;left=0;bottom=0;right=0;fontStyle=1;overflow=hidden;fontSize=12;verticalAlign=middle;spacing=0;spacingTop=0;" vertex="1" parent="MfyLsWGhFaBwBQXPZ9hn-98">
          <mxGeometry width="40" height="30" as="geometry">
            <mxRectangle width="40" height="30" as="alternateBounds" />
          </mxGeometry>
        </mxCell>
        <mxCell id="MfyLsWGhFaBwBQXPZ9hn-100" value="orchard_id" style="shape=partialRectangle;connectable=0;fillColor=none;top=0;left=0;bottom=0;right=0;align=left;spacingLeft=6;fontStyle=5;overflow=hidden;fontSize=12;verticalAlign=middle;spacing=0;spacingTop=0;" vertex="1" parent="MfyLsWGhFaBwBQXPZ9hn-98">
          <mxGeometry x="40" width="140" height="30" as="geometry">
            <mxRectangle width="140" height="30" as="alternateBounds" />
          </mxGeometry>
        </mxCell>
        <mxCell id="MfyLsWGhFaBwBQXPZ9hn-104" value="" style="shape=tableRow;horizontal=0;startSize=0;swimlaneHead=0;swimlaneBody=0;fillColor=none;collapsible=0;dropTarget=0;points=[[0,0.5],[1,0.5]];portConstraint=eastwest;top=0;left=0;right=0;bottom=0;fontSize=12;verticalAlign=middle;spacing=0;spacingTop=0;" vertex="1" parent="MfyLsWGhFaBwBQXPZ9hn-91">
          <mxGeometry y="120" width="180" height="30" as="geometry" />
        </mxCell>
        <mxCell id="MfyLsWGhFaBwBQXPZ9hn-105" value="" style="shape=partialRectangle;connectable=0;fillColor=none;top=0;left=0;bottom=0;right=0;editable=1;overflow=hidden;fontSize=12;verticalAlign=middle;spacing=0;spacingTop=0;" vertex="1" parent="MfyLsWGhFaBwBQXPZ9hn-104">
          <mxGeometry width="40" height="30" as="geometry">
            <mxRectangle width="40" height="30" as="alternateBounds" />
          </mxGeometry>
        </mxCell>
        <mxCell id="MfyLsWGhFaBwBQXPZ9hn-106" value="date" style="shape=partialRectangle;connectable=0;fillColor=none;top=0;left=0;bottom=0;right=0;align=left;spacingLeft=6;overflow=hidden;fontSize=12;verticalAlign=middle;spacing=0;spacingTop=0;" vertex="1" parent="MfyLsWGhFaBwBQXPZ9hn-104">
          <mxGeometry x="40" width="140" height="30" as="geometry">
            <mxRectangle width="140" height="30" as="alternateBounds" />
          </mxGeometry>
        </mxCell>
        <mxCell id="MfyLsWGhFaBwBQXPZ9hn-110" style="shape=tableRow;horizontal=0;startSize=0;swimlaneHead=0;swimlaneBody=0;fillColor=none;collapsible=0;dropTarget=0;points=[[0,0.5],[1,0.5]];portConstraint=eastwest;top=0;left=0;right=0;bottom=0;fontSize=12;verticalAlign=middle;spacing=0;spacingTop=0;" vertex="1" parent="MfyLsWGhFaBwBQXPZ9hn-91">
          <mxGeometry y="150" width="180" height="30" as="geometry" />
        </mxCell>
        <mxCell id="MfyLsWGhFaBwBQXPZ9hn-111" style="shape=partialRectangle;connectable=0;fillColor=none;top=0;left=0;bottom=0;right=0;editable=1;overflow=hidden;fontSize=12;verticalAlign=middle;spacing=0;spacingTop=0;" vertex="1" parent="MfyLsWGhFaBwBQXPZ9hn-110">
          <mxGeometry width="40" height="30" as="geometry">
            <mxRectangle width="40" height="30" as="alternateBounds" />
          </mxGeometry>
        </mxCell>
        <mxCell id="MfyLsWGhFaBwBQXPZ9hn-112" value="comments" style="shape=partialRectangle;connectable=0;fillColor=none;top=0;left=0;bottom=0;right=0;align=left;spacingLeft=6;overflow=hidden;fontSize=12;verticalAlign=middle;spacing=0;spacingTop=0;" vertex="1" parent="MfyLsWGhFaBwBQXPZ9hn-110">
          <mxGeometry x="40" width="140" height="30" as="geometry">
            <mxRectangle width="140" height="30" as="alternateBounds" />
          </mxGeometry>
        </mxCell>
        <mxCell id="MfyLsWGhFaBwBQXPZ9hn-107" value="" style="edgeStyle=entityRelationEdgeStyle;fontSize=12;html=1;endArrow=ERoneToMany;rounded=0;" edge="1" parent="1" source="MfyLsWGhFaBwBQXPZ9hn-82" target="MfyLsWGhFaBwBQXPZ9hn-95">
          <mxGeometry width="100" height="100" relative="1" as="geometry">
            <mxPoint x="590" y="780" as="sourcePoint" />
            <mxPoint x="690" y="680" as="targetPoint" />
          </mxGeometry>
        </mxCell>
        <mxCell id="MfyLsWGhFaBwBQXPZ9hn-108" value="" style="edgeStyle=entityRelationEdgeStyle;fontSize=12;html=1;endArrow=ERoneToMany;rounded=0;" edge="1" parent="1" source="xLpc2Q17ecYwa52cMYqb-197" target="MfyLsWGhFaBwBQXPZ9hn-98">
          <mxGeometry width="100" height="100" relative="1" as="geometry">
            <mxPoint x="590" y="780" as="sourcePoint" />
            <mxPoint x="690" y="680" as="targetPoint" />
          </mxGeometry>
        </mxCell>
      </root>
    </mxGraphModel>
  </diagram>
</mxfile>
